<?xml version="1.0" encoding="utf-8"?>
<!-- Generator: Adobe Illustrator 19.1.0, SVG Export Plug-In . SVG Version: 6.00 Build 0)  -->
<svg version="1.1" id="Layer_1" xmlns="http://www.w3.org/2000/svg" xmlns:xlink="http://www.w3.org/1999/xlink" x="0px" y="0px"
	 viewBox="0 0 116 86" style="enable-background:new 0 0 116 86;" xml:space="preserve">
<style type="text/css">
	.st0{fill:#28AAE1;}
	.st1{fill:#3E8EDE;}
	.st2{fill:#5EB947;}
	.st3{fill:#E3B531;}
	.st4{fill:#C3202E;}
	.st5{fill:#4A9E46;}
	.st6{fill:#408045;}
	.st7{fill:#F7C118;}
	.st8{fill:#ED412A;}
	.st9{fill:#F89C28;}
	.st10{fill:#1A94D2;}
	.st11{fill:#A01C44;}
	.st12{fill:#27BBE0;}
	.st13{fill:#F06A2C;}
	.st14{fill:#E5243C;}
	.st15{fill:#DB1868;}
	.st16{fill:#15486A;}
	.st17{fill:#C4952D;}
	.st18{fill:#046A9B;}
	.st19{fill:#E24F42;}
	.st20{fill:#31B496;}
	.st21{fill:#EDC131;}
	.st22{fill:#4D4C4C;}
	.st23{fill:#010101;}
	.st24{fill:none;stroke:#F2F2F2;stroke-width:22;stroke-miterlimit:10;}
	.st25{fill:#FFFFFF;}
	.st26{fill:#3E96D0;}
	.st27{fill:#F2F2F2;}
	.st28{fill:none;stroke:url(#SVGID_27_);stroke-width:6.6762;stroke-linecap:round;stroke-miterlimit:10;}
	.st29{fill:#E51488;}
	.st30{fill:#E6E6E6;}
	.st31{fill:#71358F;}
	.st32{opacity:0.85;enable-background:new    ;}
	.st33{clip-path:url(#SVGID_28_);}
	.st34{clip-path:url(#SVGID_29_);fill:#FFFFFF;}
	.st35{fill:#48C0BC;}
	.st36{clip-path:url(#SVGID_30_);}
	.st37{clip-path:url(#SVGID_31_);fill:#FFFFFF;}
	.st38{fill:#94D0C6;}
	.st39{clip-path:url(#SVGID_32_);}
	.st40{clip-path:url(#SVGID_33_);fill:#FFFFFF;}
	.st41{fill:#387192;}
	.st42{clip-path:url(#SVGID_34_);}
	.st43{clip-path:url(#SVGID_35_);fill:#FFFFFF;}
	.st44{fill:#AED256;}
	.st45{clip-path:url(#SVGID_36_);}
	.st46{clip-path:url(#SVGID_37_);fill:#FFFFFF;}
	.st47{fill:#7FB4D5;}
	.st48{clip-path:url(#SVGID_38_);}
	.st49{clip-path:url(#SVGID_39_);fill:#FFFFFF;}
	.st50{fill:#F7E38E;}
	.st51{clip-path:url(#SVGID_40_);}
	.st52{clip-path:url(#SVGID_41_);fill:#FFFFFF;}
	.st53{fill:#C83D28;}
	.st54{clip-path:url(#SVGID_42_);}
	.st55{clip-path:url(#SVGID_43_);fill:#FFFFFF;}
	.st56{fill:#2EA5DD;}
	.st57{clip-path:url(#SVGID_44_);}
	.st58{clip-path:url(#SVGID_45_);fill:#FFFFFF;}
	.st59{fill:#DCBCC4;}
	.st60{clip-path:url(#SVGID_46_);}
	.st61{clip-path:url(#SVGID_47_);fill:#FFFFFF;}
	.st62{fill:#C54696;}
	.st63{clip-path:url(#SVGID_48_);}
	.st64{clip-path:url(#SVGID_49_);fill:#FFFFFF;}
	.st65{fill:#9E1C42;}
	.st66{clip-path:url(#SVGID_50_);}
	.st67{clip-path:url(#SVGID_51_);fill:#FFFFFF;}
	.st68{fill:#73BE46;}
	.st69{clip-path:url(#SVGID_52_);}
	.st70{clip-path:url(#SVGID_53_);fill:#FFFFFF;}
	.st71{fill:#253D80;}
	.st72{clip-path:url(#SVGID_54_);}
	.st73{clip-path:url(#SVGID_55_);fill:#FFFFFF;}
	.st74{fill:#E41789;}
	.st75{clip-path:url(#SVGID_56_);}
	.st76{clip-path:url(#SVGID_57_);fill:#FFFFFF;}
	.st77{fill:#F8B449;}
	.st78{clip-path:url(#SVGID_58_);}
	.st79{clip-path:url(#SVGID_59_);fill:#FFFFFF;}
	.st80{clip-path:url(#SVGID_60_);}
	.st81{clip-path:url(#SVGID_61_);fill:#C7C8CA;}
	.st82{clip-path:url(#SVGID_62_);}
	.st83{clip-path:url(#SVGID_63_);fill:#C7C8CA;}
	.st84{clip-path:url(#SVGID_64_);}
	.st85{clip-path:url(#SVGID_65_);fill:#221F1F;}
	.st86{clip-path:url(#SVGID_66_);}
	.st87{clip-path:url(#SVGID_67_);fill:#221F1F;}
	.st88{clip-path:url(#SVGID_68_);}
	.st89{clip-path:url(#SVGID_69_);fill:#221F1F;}
	.st90{clip-path:url(#SVGID_70_);}
	.st91{clip-path:url(#SVGID_71_);fill:#221F1F;}
	.st92{clip-path:url(#SVGID_72_);}
	.st93{clip-path:url(#SVGID_73_);fill:#221F1F;}
	.st94{clip-path:url(#SVGID_74_);}
	.st95{clip-path:url(#SVGID_75_);fill:#221F1F;}
	.st96{clip-path:url(#SVGID_76_);}
	.st97{clip-path:url(#SVGID_77_);fill:#221F1F;}
	.st98{fill:#E34B43;}
	.st99{fill:#5FBA49;}
	.st100{fill:#DEB141;}
	.st101{fill:#C42439;}
	.st102{fill:#4DA348;}
	.st103{fill:#3E804C;}
	.st104{fill:#FBBF2B;}
	.st105{fill:#EF4E39;}
	.st106{fill:#F89B39;}
	.st107{fill:#0697D4;}
	.st108{fill:#9D1C49;}
	.st109{fill:#0ABFDF;}
	.st110{fill:#F2713A;}
	.st111{fill:#ED3047;}
	.st112{fill:#DF2370;}
	.st113{fill:#134C6C;}
	.st114{fill:#C09439;}
	.st115{fill:#066D9E;}
	.st116{fill:#F9B547;}
	.st117{fill:none;stroke:#3E96D0;stroke-width:1.5;stroke-linecap:round;stroke-miterlimit:10;}
	.st118{fill:none;stroke:#31B496;stroke-width:1.5;stroke-miterlimit:10;}
	.st119{clip-path:url(#SVGID_79_);}
	.st120{clip-path:url(#SVGID_80_);}
	.st121{clip-path:url(#SVGID_81_);}
	.st122{clip-path:url(#SVGID_82_);}
	.st123{fill:none;stroke:#E24F42;stroke-width:1.5;stroke-miterlimit:10;}
	.st124{clip-path:url(#SVGID_83_);}
	.st125{clip-path:url(#SVGID_85_);}
	.st126{fill:none;stroke:#EDC131;stroke-width:1.5;stroke-miterlimit:10;}
	.st127{clip-path:url(#SVGID_86_);}
	.st128{clip-path:url(#SVGID_88_);}
	.st129{clip-path:url(#SVGID_89_);}
	.st130{clip-path:url(#SVGID_90_);}
	.st131{fill:url(#path183_3_);}
	.st132{fill:url(#polygon185_3_);}
	.st133{fill:url(#path187_3_);}
	.st134{fill:url(#path191_3_);}
	.st135{fill:url(#rect193_3_);}
	.st136{fill:url(#path195_3_);}
	.st137{fill:url(#path197_3_);}
	.st138{fill:url(#path199_3_);}
	.st139{fill:url(#path201_3_);}
	.st140{fill:url(#polygon205_3_);}
	.st141{fill:url(#polygon207_3_);}
	.st142{fill:url(#polygon209_3_);}
	.st143{fill:url(#rect215_3_);}
	.st144{clip-path:url(#SVGID_92_);}
	.st145{clip-path:url(#SVGID_93_);}
	.st146{clip-path:url(#SVGID_94_);}
	.st147{clip-path:url(#SVGID_95_);}
	.st148{clip-path:url(#SVGID_96_);}
	.st149{clip-path:url(#SVGID_98_);}
	.st150{clip-path:url(#SVGID_99_);}
	.st151{clip-path:url(#SVGID_101_);}
	.st152{clip-path:url(#SVGID_102_);}
	.st153{clip-path:url(#SVGID_103_);}
	.st154{fill:url(#path183_4_);}
	.st155{fill:url(#polygon185_4_);}
	.st156{fill:url(#path187_4_);}
	.st157{fill:url(#path191_4_);}
	.st158{fill:url(#rect193_4_);}
	.st159{fill:url(#path195_4_);}
	.st160{fill:url(#path197_4_);}
	.st161{fill:url(#path199_4_);}
	.st162{fill:url(#path201_4_);}
	.st163{fill:url(#polygon205_4_);}
	.st164{fill:url(#polygon207_4_);}
	.st165{fill:url(#polygon209_4_);}
	.st166{fill:url(#rect215_4_);}
</style>
<g>
	<g>
		<path class="st22" d="M6.4,60.4h0.2h22.9c0.3,0,0.6-0.3,0.6-0.6c0-0.1-0.1-0.3-0.1-0.4l0,0L18.4,44.5l-0.1-0.1
			c-0.1-0.1-0.3-0.2-0.4-0.2c-0.1,0-0.3,0.1-0.4,0.1l-0.1,0.1l-0.1,0.1L6.1,59.3l-0.2,0.2c-0.1,0.1-0.1,0.2-0.1,0.3
			C5.8,60.2,6.1,60.4,6.4,60.4z"/>
		<path class="st22" d="M29.5,62.5H6.3c-0.3,0-0.6,0.3-0.6,0.6v18.2c0,0.3,0.3,0.6,0.6,0.6h7.5V70.4c0-0.3,0.3-0.6,0.6-0.6h6.9
			c0.3,0,0.6,0.3,0.6,0.6v11.4h7.7c0.3,0,0.6-0.3,0.6-0.6V63.1C30.1,62.8,29.8,62.5,29.5,62.5z"/>
	</g>
	<path class="st22" d="M109.7,57.8h-23c-0.3,0-0.6,0.2-0.6,0.5v23.2c0,0.3,0.3,0.5,0.6,0.5h23c0.3,0,0.6-0.2,0.6-0.5V58.3
		C110.3,58,110,57.8,109.7,57.8 M97.1,72.9c0,0.3-0.3,0.5-0.6,0.5h-6.9c-0.3,0-0.6-0.2-0.6-0.5v-4.2c0-0.3,0.3-0.5,0.6-0.5h6.9
		c0.3,0,0.6,0.2,0.6,0.5V72.9z M97.1,65.2c0,0.3-0.3,0.5-0.6,0.5h-6.9c-0.3,0-0.6-0.2-0.6-0.5V61c0-0.3,0.3-0.5,0.6-0.5h6.9
		c0.3,0,0.6,0.2,0.6,0.5V65.2z M107.6,72.9c0,0.3-0.3,0.5-0.6,0.5h-6.9c-0.3,0-0.6-0.2-0.6-0.5v-4.2c0-0.3,0.3-0.5,0.6-0.5h6.9
		c0.3,0,0.6,0.2,0.6,0.5V72.9z M107.6,65.2c0,0.3-0.3,0.5-0.6,0.5h-6.9c-0.3,0-0.6-0.2-0.6-0.5V61c0-0.3,0.3-0.5,0.6-0.5h6.9
		c0.3,0,0.6,0.2,0.6,0.5V65.2z"/>
	<path class="st22" d="M56.3,3.9H33.8c-0.3,0-0.5,0.2-0.5,0.6v76.8c0,0.3,0.2,0.5,0.5,0.5h22.5c0.3,0,0.6-0.2,0.6-0.5V4.5
		C56.9,4.2,56.6,3.9,56.3,3.9 M42.9,73.1c0,0.2-0.1,0.3-0.3,0.3h-5.1c-0.2,0-0.3-0.1-0.3-0.3v-5.7c0-0.2,0.1-0.3,0.3-0.3h5.1
		c0.2,0,0.3,0.1,0.3,0.3V73.1z M42.9,59.9c0,0.2-0.1,0.3-0.3,0.3h-5.1c-0.2,0-0.3-0.1-0.3-0.3v-5.7c0-0.2,0.1-0.3,0.3-0.3h5.1
		c0.2,0,0.3,0.1,0.3,0.3V59.9z M42.9,46.8c0,0.2-0.1,0.3-0.3,0.3h-5.1c-0.2,0-0.3-0.1-0.3-0.3V41c0-0.2,0.1-0.3,0.3-0.3h5.1
		c0.2,0,0.3,0.1,0.3,0.3V46.8z M42.9,33.6c0,0.2-0.1,0.3-0.3,0.3h-5.1c-0.2,0-0.3-0.1-0.3-0.3v-5.7c0-0.2,0.1-0.3,0.3-0.3h5.1
		c0.2,0,0.3,0.1,0.3,0.3V33.6z M42.9,20.4c0,0.2-0.1,0.3-0.3,0.3h-5.1c-0.2,0-0.3-0.1-0.3-0.3v-5.7c0-0.2,0.1-0.3,0.3-0.3h5.1
		c0.2,0,0.3,0.1,0.3,0.3V20.4z M53,73.1c0,0.2-0.1,0.3-0.3,0.3h-5.1c-0.2,0-0.3-0.1-0.3-0.3v-5.7c0-0.2,0.1-0.3,0.3-0.3h5.1
		c0.2,0,0.3,0.1,0.3,0.3V73.1z M53,59.9c0,0.2-0.1,0.3-0.3,0.3h-5.1c-0.2,0-0.3-0.1-0.3-0.3v-5.7c0-0.2,0.1-0.3,0.3-0.3h5.1
		c0.2,0,0.3,0.1,0.3,0.3V59.9z M53,46.8c0,0.2-0.1,0.3-0.3,0.3h-5.1c-0.2,0-0.3-0.1-0.3-0.3V41c0-0.2,0.1-0.3,0.3-0.3h5.1
		c0.2,0,0.3,0.1,0.3,0.3V46.8z M53,33.6c0,0.2-0.1,0.3-0.3,0.3h-5.1c-0.2,0-0.3-0.1-0.3-0.3v-5.7c0-0.2,0.1-0.3,0.3-0.3h5.1
		c0.2,0,0.3,0.1,0.3,0.3V33.6z M53,20.4c0,0.2-0.1,0.3-0.3,0.3h-5.1c-0.2,0-0.3-0.1-0.3-0.3v-5.7c0-0.2,0.1-0.3,0.3-0.3h5.1
		c0.2,0,0.3,0.1,0.3,0.3V20.4z"/>
	<path class="st22" d="M110.2,55.4c0,0.3-0.2,0.5-0.5,0.5H86.7c-0.3,0-0.5-0.2-0.5-0.5v-4.6c0-0.3,0.2-0.5,0.5-0.5h23.1
		c0.3,0,0.5,0.2,0.5,0.5V55.4z"/>
	<path class="st22" d="M83.5,18.4c-0.1-0.2-0.3-0.4-0.6-0.4c-0.1,0-0.2,0-0.3,0.1c0,0,0,0,0,0l-0.2,0.2l-22.1,28l-0.1,0.1
		C60,46.7,60,46.8,60,47v0v34.4c0,0.3,0.2,0.5,0.6,0.5H83c0.3,0,0.5-0.2,0.5-0.5V18.7C83.5,18.6,83.5,18.5,83.5,18.4z M74.2,33.7
		l0.2-0.2c1.5-1.9,4.1-5.1,5.3-6.6l0.2-0.2c0.1-0.1,0.3-0.2,0.5-0.2c0.3,0,0.6,0.2,0.6,0.5v0.2v0.2V34c0,0.3-0.3,0.6-0.6,0.6
		c0,0,0,0,0,0s0,0,0,0H75h-0.3c0,0,0,0,0,0c0,0,0,0,0,0c-0.3,0-0.6-0.3-0.6-0.6C74,33.9,74.1,33.8,74.2,33.7z M70.7,72.9
		c0,0.3-0.2,0.5-0.5,0.5h-6.7c-0.3,0-0.5-0.2-0.5-0.5v-4.2c0-0.3,0.2-0.5,0.5-0.5h6.7c0.3,0,0.5,0.2,0.5,0.5V72.9z M70.7,65.2
		c0,0.3-0.2,0.5-0.5,0.5h-6.7c-0.3,0-0.5-0.2-0.5-0.5V61c0-0.3,0.2-0.5,0.5-0.5h6.7c0.3,0,0.5,0.2,0.5,0.5V65.2z M70.7,57.4
		c0,0.3-0.2,0.5-0.5,0.5h-6.7c-0.3,0-0.5-0.2-0.5-0.5v-4.2c0-0.3,0.2-0.5,0.5-0.5h6.7c0.3,0,0.5,0.2,0.5,0.5V57.4z M70.7,40.4v0.2v9
		c0,0.3-0.2,0.5-0.5,0.5h-6.7c-0.3,0-0.6-0.2-0.6-0.5v-1.1v0c0-0.1,0-0.1,0-0.2c0,0,0,0,0-0.1c0,0,0-0.1,0-0.1c0,0,0-0.1,0.1-0.1
		c0.9-1.2,4.7-6,6.3-8l0.2-0.2c0.1-0.1,0.3-0.2,0.5-0.2c0.3,0,0.6,0.2,0.6,0.5V40.4z M80.9,72.9c0,0.3-0.2,0.5-0.5,0.5h-6.7
		c-0.3,0-0.6-0.2-0.6-0.5v-4.2c0-0.3,0.2-0.5,0.6-0.5h6.7c0.3,0,0.5,0.2,0.5,0.5V72.9z M80.9,65.2c0,0.3-0.2,0.5-0.5,0.5h-6.7
		c-0.3,0-0.6-0.2-0.6-0.5V61c0-0.3,0.2-0.5,0.6-0.5h6.7c0.3,0,0.5,0.2,0.5,0.5V65.2z M80.9,57.4c0,0.3-0.2,0.5-0.5,0.5h-6.7
		c-0.3,0-0.6-0.2-0.6-0.5v-4.2c0-0.3,0.2-0.5,0.6-0.5h6.7c0.3,0,0.5,0.2,0.5,0.5V57.4z M80.9,49.7c0,0.3-0.2,0.5-0.5,0.5h-6.7
		c-0.3,0-0.6-0.2-0.6-0.5v-4.2c0-0.3,0.2-0.5,0.6-0.5h6.7c0.3,0,0.5,0.2,0.5,0.5V49.7z M80.9,41.9c0,0.3-0.2,0.5-0.5,0.5h-6.7
		c-0.3,0-0.6-0.2-0.6-0.5v-4.2c0-0.3,0.2-0.6,0.6-0.6h6.7c0.3,0,0.5,0.2,0.5,0.6V41.9z"/>
</g>
</svg>
