<?xml version="1.0" encoding="utf-8"?>
<!-- Generator: Adobe Illustrator 19.1.0, SVG Export Plug-In . SVG Version: 6.00 Build 0)  -->
<svg version="1.1" id="Layer_1" xmlns="http://www.w3.org/2000/svg" xmlns:xlink="http://www.w3.org/1999/xlink" x="0px" y="0px"
	 viewBox="0 0 116 86" style="enable-background:new 0 0 116 86;" xml:space="preserve">
<style type="text/css">
	.st0{fill:#28AAE1;}
	.st1{fill:#3E8EDE;}
	.st2{fill:#5EB947;}
	.st3{fill:#E3B531;}
	.st4{fill:#C3202E;}
	.st5{fill:#4A9E46;}
	.st6{fill:#408045;}
	.st7{fill:#F7C118;}
	.st8{fill:#ED412A;}
	.st9{fill:#F89C28;}
	.st10{fill:#1A94D2;}
	.st11{fill:#A01C44;}
	.st12{fill:#27BBE0;}
	.st13{fill:#F06A2C;}
	.st14{fill:#E5243C;}
	.st15{fill:#DB1868;}
	.st16{fill:#15486A;}
	.st17{fill:#C4952D;}
	.st18{fill:#046A9B;}
	.st19{fill:#E24F42;}
	.st20{fill:#31B496;}
	.st21{fill:#EDC131;}
	.st22{fill:#4D4C4C;}
	.st23{fill:#010101;}
	.st24{fill:none;stroke:#F2F2F2;stroke-width:22;stroke-miterlimit:10;}
	.st25{fill:#FFFFFF;}
	.st26{fill:#3E96D0;}
	.st27{fill:#F2F2F2;}
	.st28{fill:none;stroke:url(#SVGID_27_);stroke-width:6.6762;stroke-linecap:round;stroke-miterlimit:10;}
	.st29{fill:#E51488;}
	.st30{fill:#E6E6E6;}
	.st31{fill:#71358F;}
	.st32{opacity:0.85;enable-background:new    ;}
	.st33{clip-path:url(#SVGID_28_);}
	.st34{clip-path:url(#SVGID_29_);fill:#FFFFFF;}
	.st35{fill:#48C0BC;}
	.st36{clip-path:url(#SVGID_30_);}
	.st37{clip-path:url(#SVGID_31_);fill:#FFFFFF;}
	.st38{fill:#94D0C6;}
	.st39{clip-path:url(#SVGID_32_);}
	.st40{clip-path:url(#SVGID_33_);fill:#FFFFFF;}
	.st41{fill:#387192;}
	.st42{clip-path:url(#SVGID_34_);}
	.st43{clip-path:url(#SVGID_35_);fill:#FFFFFF;}
	.st44{fill:#AED256;}
	.st45{clip-path:url(#SVGID_36_);}
	.st46{clip-path:url(#SVGID_37_);fill:#FFFFFF;}
	.st47{fill:#7FB4D5;}
	.st48{clip-path:url(#SVGID_38_);}
	.st49{clip-path:url(#SVGID_39_);fill:#FFFFFF;}
	.st50{fill:#F7E38E;}
	.st51{clip-path:url(#SVGID_40_);}
	.st52{clip-path:url(#SVGID_41_);fill:#FFFFFF;}
	.st53{fill:#C83D28;}
	.st54{clip-path:url(#SVGID_42_);}
	.st55{clip-path:url(#SVGID_43_);fill:#FFFFFF;}
	.st56{fill:#2EA5DD;}
	.st57{clip-path:url(#SVGID_44_);}
	.st58{clip-path:url(#SVGID_45_);fill:#FFFFFF;}
	.st59{fill:#DCBCC4;}
	.st60{clip-path:url(#SVGID_46_);}
	.st61{clip-path:url(#SVGID_47_);fill:#FFFFFF;}
	.st62{fill:#C54696;}
	.st63{clip-path:url(#SVGID_48_);}
	.st64{clip-path:url(#SVGID_49_);fill:#FFFFFF;}
	.st65{fill:#9E1C42;}
	.st66{clip-path:url(#SVGID_50_);}
	.st67{clip-path:url(#SVGID_51_);fill:#FFFFFF;}
	.st68{fill:#73BE46;}
	.st69{clip-path:url(#SVGID_52_);}
	.st70{clip-path:url(#SVGID_53_);fill:#FFFFFF;}
	.st71{fill:#253D80;}
	.st72{clip-path:url(#SVGID_54_);}
	.st73{clip-path:url(#SVGID_55_);fill:#FFFFFF;}
	.st74{fill:#E41789;}
	.st75{clip-path:url(#SVGID_56_);}
	.st76{clip-path:url(#SVGID_57_);fill:#FFFFFF;}
	.st77{fill:#F8B449;}
	.st78{clip-path:url(#SVGID_58_);}
	.st79{clip-path:url(#SVGID_59_);fill:#FFFFFF;}
	.st80{clip-path:url(#SVGID_60_);}
	.st81{clip-path:url(#SVGID_61_);fill:#C7C8CA;}
	.st82{clip-path:url(#SVGID_62_);}
	.st83{clip-path:url(#SVGID_63_);fill:#C7C8CA;}
	.st84{clip-path:url(#SVGID_64_);}
	.st85{clip-path:url(#SVGID_65_);fill:#221F1F;}
	.st86{clip-path:url(#SVGID_66_);}
	.st87{clip-path:url(#SVGID_67_);fill:#221F1F;}
	.st88{clip-path:url(#SVGID_68_);}
	.st89{clip-path:url(#SVGID_69_);fill:#221F1F;}
	.st90{clip-path:url(#SVGID_70_);}
	.st91{clip-path:url(#SVGID_71_);fill:#221F1F;}
	.st92{clip-path:url(#SVGID_72_);}
	.st93{clip-path:url(#SVGID_73_);fill:#221F1F;}
	.st94{clip-path:url(#SVGID_74_);}
	.st95{clip-path:url(#SVGID_75_);fill:#221F1F;}
	.st96{clip-path:url(#SVGID_76_);}
	.st97{clip-path:url(#SVGID_77_);fill:#221F1F;}
	.st98{fill:#E34B43;}
	.st99{fill:#5FBA49;}
	.st100{fill:#DEB141;}
	.st101{fill:#C42439;}
	.st102{fill:#4DA348;}
	.st103{fill:#3E804C;}
	.st104{fill:#FBBF2B;}
	.st105{fill:#EF4E39;}
	.st106{fill:#F89B39;}
	.st107{fill:#0697D4;}
	.st108{fill:#9D1C49;}
	.st109{fill:#0ABFDF;}
	.st110{fill:#F2713A;}
	.st111{fill:#ED3047;}
	.st112{fill:#DF2370;}
	.st113{fill:#134C6C;}
	.st114{fill:#C09439;}
	.st115{fill:#066D9E;}
	.st116{fill:#F9B547;}
	.st117{fill:none;stroke:#3E96D0;stroke-width:1.5;stroke-linecap:round;stroke-miterlimit:10;}
	.st118{fill:none;stroke:#31B496;stroke-width:1.5;stroke-miterlimit:10;}
	.st119{clip-path:url(#SVGID_79_);}
	.st120{clip-path:url(#SVGID_80_);}
	.st121{clip-path:url(#SVGID_81_);}
	.st122{clip-path:url(#SVGID_82_);}
	.st123{fill:none;stroke:#E24F42;stroke-width:1.5;stroke-miterlimit:10;}
	.st124{clip-path:url(#SVGID_83_);}
	.st125{clip-path:url(#SVGID_85_);}
	.st126{fill:none;stroke:#EDC131;stroke-width:1.5;stroke-miterlimit:10;}
	.st127{clip-path:url(#SVGID_86_);}
	.st128{clip-path:url(#SVGID_88_);}
	.st129{clip-path:url(#SVGID_89_);}
	.st130{clip-path:url(#SVGID_90_);}
	.st131{fill:url(#path183_3_);}
	.st132{fill:url(#polygon185_3_);}
	.st133{fill:url(#path187_3_);}
	.st134{fill:url(#path191_3_);}
	.st135{fill:url(#rect193_3_);}
	.st136{fill:url(#path195_3_);}
	.st137{fill:url(#path197_3_);}
	.st138{fill:url(#path199_3_);}
	.st139{fill:url(#path201_3_);}
	.st140{fill:url(#polygon205_3_);}
	.st141{fill:url(#polygon207_3_);}
	.st142{fill:url(#polygon209_3_);}
	.st143{fill:url(#rect215_3_);}
	.st144{clip-path:url(#SVGID_92_);}
	.st145{clip-path:url(#SVGID_93_);}
	.st146{clip-path:url(#SVGID_94_);}
	.st147{clip-path:url(#SVGID_95_);}
	.st148{clip-path:url(#SVGID_96_);}
	.st149{clip-path:url(#SVGID_98_);}
	.st150{clip-path:url(#SVGID_99_);}
	.st151{clip-path:url(#SVGID_101_);}
	.st152{clip-path:url(#SVGID_102_);}
	.st153{clip-path:url(#SVGID_103_);}
	.st154{fill:url(#path183_4_);}
	.st155{fill:url(#polygon185_4_);}
	.st156{fill:url(#path187_4_);}
	.st157{fill:url(#path191_4_);}
	.st158{fill:url(#rect193_4_);}
	.st159{fill:url(#path195_4_);}
	.st160{fill:url(#path197_4_);}
	.st161{fill:url(#path199_4_);}
	.st162{fill:url(#path201_4_);}
	.st163{fill:url(#polygon205_4_);}
	.st164{fill:url(#polygon207_4_);}
	.st165{fill:url(#polygon209_4_);}
	.st166{fill:url(#rect215_4_);}
</style>
<g>
	<g>
		<path class="st22" d="M102,22.1c0-2.4,1.9-4.3,4.3-4.3c2.4,0,4.3,1.9,4.3,4.3c0,2.4-1.9,4.3-4.3,4.3C103.9,26.4,102,24.5,102,22.1
			"/>
		<path class="st22" d="M111.2,28c2.9,0.3,5.2,2.7,5.2,5.7v1.4v0.6v9.8c0,0.9-0.7,1.7-1.7,1.7c-0.9,0-1.7-0.7-1.7-1.7V35.4
			c0-0.4-0.1-0.9-0.8-0.9c-0.5,0-0.6,0.5-0.6,0.8v30.4c0,1.3-1.1,2.4-2.4,2.4c-1.3,0-2.4-1.1-2.4-2.4V48.2c0-0.2-0.1-0.7-0.7-0.7h0
			c-0.6,0-0.7,0.5-0.7,0.7v17.5c0,1.3-1.1,2.4-2.4,2.4c-1.3,0-2.4-1.1-2.4-2.4V35.3c0-0.3-0.1-0.8-0.6-0.8c-0.7,0-0.8,0.5-0.8,0.9
			v10.1c0,0.9-0.7,1.7-1.7,1.7c-0.9,0-1.7-0.7-1.7-1.7v-9.8v-0.6v-1.4c0-3,2.3-5.4,5.2-5.7c0.1,0,0.2,0,0.3,0h4.7h4.7
			C111,28,111.1,28,111.2,28"/>
	</g>
	<g>
		<path class="st22" d="M76.6,24.4c0-2.2-1.8-4-4-4c-2.2,0-4,1.8-4,4c0,2.2,1.8,4,4,4C74.8,28.4,76.6,26.6,76.6,24.4"/>
		<path class="st22" d="M64.4,33.5l-3.4,10.9c0,0-0.6,2,1.1,2.5c1.7,0.5,2.2-1.5,2.2-1.5l2.7-9.1c0,0,0.1-0.7,0.7-0.5
			c0.5,0.2,0.3,0.9,0.3,0.9l-4.7,17.1h4.4V66c0,1.2,0.9,2.1,2.1,2.1c1.2,0,2.1-0.9,2.1-2.1V53.8h0.6h0.6V66c0,1.2,0.9,2.1,2.1,2.1
			c1.2,0,2.1-0.9,2.1-2.1V53.8h4.4l-4.7-17.1c0,0-0.2-0.8,0.3-0.9c0.5-0.2,0.7,0.5,0.7,0.5l2.7,9.1c0,0,0.5,2,2.2,1.5
			c1.7-0.5,1.1-2.5,1.1-2.5l-3.4-10.9c0,0-1.2-3.2-3.9-3.2h-4.3h-4.3C65.6,30.4,64.4,33.5,64.4,33.5"/>
	</g>
	<g>
		<path class="st22" d="M52.4,24.4c0-2.2-1.8-4-4-4c-2.2,0-4,1.8-4,4c0,2.2,1.8,4,4,4C50.6,28.4,52.4,26.6,52.4,24.4"/>
		<path class="st22" d="M40.3,33.5l-3.4,10.9c0,0-0.6,2,1.1,2.5c1.7,0.5,2.2-1.5,2.2-1.5l2.7-9.1c0,0,0.1-0.7,0.7-0.5
			c0.5,0.2,0.3,0.9,0.3,0.9l-4.7,17.1h4.4V66c0,1.2,0.9,2.1,2.1,2.1c1.2,0,2.1-0.9,2.1-2.1V53.8h0.6H49V66c0,1.2,0.9,2.1,2.1,2.1
			c1.2,0,2.1-0.9,2.1-2.1V53.8h4.4l-4.7-17.1c0,0-0.2-0.8,0.3-0.9c0.5-0.2,0.7,0.5,0.7,0.5l2.7,9.1c0,0,0.5,2,2.2,1.5
			c1.7-0.5,1.1-2.5,1.1-2.5l-3.4-10.9c0,0-1.2-3.2-3.9-3.2h-4.3h-4.3C41.5,30.4,40.3,33.5,40.3,33.5"/>
	</g>
	<g>
		<path class="st22" d="M90.2,47c1.9,0,3.4-1.5,3.4-3.4c0-1.9-1.5-3.4-3.4-3.4s-3.4,1.5-3.4,3.4C86.8,45.5,88.3,47,90.2,47"/>
		<path class="st22" d="M82.1,57.4c-0.2,0.4-0.3,1.2,0.5,1.6c0.9,0.4,1.4-0.5,1.4-0.5l1.8-5.8c0,0,0.3-0.4,0.3,0v13.7h0
			c0,1,0.8,1.7,1.7,1.7c1,0,1.7-0.8,1.7-1.7V61c0,0-0.1-0.8,0.5-0.8c0.6,0,0.5,0.8,0.5,0.8v5.4c0,1,0.8,1.7,1.7,1.7
			c1,0,1.7-0.8,1.7-1.7V52.7c0-0.4,0.2-0.1,0.2-0.1l1.4,4c0,0,0.6,1.8,0.8,1.9c0.6,0.3,1.4,0,1.7-0.7c0.2-0.4,0.1-0.9-0.1-1.2l0,0
			c0-0.1-2.1-5.3-2.4-6c-0.8-2.2-2.1-2.2-3.5-2.2c-1.3,0-2.1,0-2.1,0s-0.8,0-2.6,0c-1.8,0.1-2.3,1-4.2,5.9
			C83,54.9,82.1,57.3,82.1,57.4L82.1,57.4z"/>
	</g>
	<g>
		<g>
			<path class="st22" d="M16.4,22.1c0-2.4-1.9-4.3-4.3-4.3c-2.4,0-4.3,1.9-4.3,4.3c0,2.4,1.9,4.3,4.3,4.3
				C14.5,26.4,16.4,24.5,16.4,22.1"/>
			<path class="st22" d="M7.1,28C4.3,28.3,2,30.7,2,33.7v1.4v0.6v9.8c0,0.9,0.7,1.7,1.7,1.7c0.9,0,1.7-0.7,1.7-1.7V35.4
				c0-0.4,0.1-0.9,0.8-0.9c0.5,0,0.6,0.5,0.6,0.8v30.4c0,1.3,1.1,2.4,2.4,2.4c1.3,0,2.4-1.1,2.4-2.4V48.2c0-0.2,0.1-0.7,0.7-0.7h0
				c0.6,0,0.7,0.5,0.7,0.7v17.5c0,1.3,1.1,2.4,2.4,2.4c1.3,0,2.4-1.1,2.4-2.4V35.3c0-0.3,0.1-0.8,0.6-0.8c0.7,0,0.8,0.5,0.8,0.9
				v10.1c0,0.9,0.7,1.7,1.7,1.7s1.7-0.7,1.7-1.7v-9.8v-0.6v-1.4c0-3-2.3-5.4-5.2-5.7c-0.1,0-0.2,0-0.3,0h-4.7H7.5
				C7.3,28,7.2,28,7.1,28"/>
		</g>
		<line class="st22" x1="3.4" y1="47.2" x2="-0.4" y2="67.3"/>
	</g>
	<g>
		<path class="st22" d="M24.3,45.2c-0.2-0.3-0.6-0.6-1-0.6c-0.7,0-1.2,0.5-1.2,1.2c0,0.2,0.1,0.5,0.1,0.5l3.4,6.1
			c0,0,0.2,0.4,0.2,0.8v13.2h0c0,0.9,0.7,1.7,1.7,1.7c0.9,0,1.7-0.7,1.7-1.7v-5.2c0,0-0.1-0.7,0.5-0.7c0.6,0,0.5,0.7,0.5,0.7v5.2
			c0,0.9,0.7,1.7,1.7,1.7c0.9,0,1.7-0.7,1.7-1.7V53.3c0-0.4,0.2-0.8,0.2-0.8l3.1-5.7c0,0,0.4-0.8,0.4-1c0-0.7-0.5-1.2-1.2-1.2
			c-0.4,0-0.8,0.2-1,0.6l0,0c-0.1,0.1-1.7,2.9-2.2,3.4c-0.5,0.6-1,0.5-1,0.5h-2h-2c0,0-0.5,0.1-1-0.5C26,48.1,24.4,45.3,24.3,45.2
			L24.3,45.2z"/>
		<path class="st22" d="M29.6,47c1.9,0,3.4-1.5,3.4-3.4c0-1.9-1.5-3.4-3.4-3.4c-1.9,0-3.4,1.5-3.4,3.4C26.2,45.5,27.7,47,29.6,47"/>
		<polygon class="st22" points="29.6,51.7 33.4,54.4 35.2,61.1 29.6,61.1 24,61.1 25.8,54.4 		"/>
	</g>
</g>
</svg>
