<?xml version="1.0" encoding="utf-8"?>
<!-- Generator: Adobe Illustrator 19.1.0, SVG Export Plug-In . SVG Version: 6.00 Build 0)  -->
<svg version="1.1" id="Layer_1" xmlns="http://www.w3.org/2000/svg" xmlns:xlink="http://www.w3.org/1999/xlink" x="0px" y="0px"
	 viewBox="0 0 116 86" style="enable-background:new 0 0 116 86;" xml:space="preserve">
<style type="text/css">
	.st0{fill:#28AAE1;}
	.st1{fill:#3E8EDE;}
	.st2{fill:#5EB947;}
	.st3{fill:#E3B531;}
	.st4{fill:#C3202E;}
	.st5{fill:#4A9E46;}
	.st6{fill:#408045;}
	.st7{fill:#F7C118;}
	.st8{fill:#ED412A;}
	.st9{fill:#F89C28;}
	.st10{fill:#1A94D2;}
	.st11{fill:#A01C44;}
	.st12{fill:#27BBE0;}
	.st13{fill:#F06A2C;}
	.st14{fill:#E5243C;}
	.st15{fill:#DB1868;}
	.st16{fill:#15486A;}
	.st17{fill:#C4952D;}
	.st18{fill:#046A9B;}
	.st19{fill:#E24F42;}
	.st20{fill:#31B496;}
	.st21{fill:#EDC131;}
	.st22{fill:#4D4C4C;}
	.st23{fill:#010101;}
	.st24{fill:none;stroke:#F2F2F2;stroke-width:22;stroke-miterlimit:10;}
	.st25{fill:#FFFFFF;}
	.st26{fill:#3E96D0;}
	.st27{fill:#F2F2F2;}
	.st28{fill:none;stroke:url(#SVGID_27_);stroke-width:6.6762;stroke-linecap:round;stroke-miterlimit:10;}
	.st29{fill:#E51488;}
	.st30{fill:#E6E6E6;}
	.st31{fill:#71358F;}
	.st32{opacity:0.85;enable-background:new    ;}
	.st33{clip-path:url(#SVGID_28_);}
	.st34{clip-path:url(#SVGID_29_);fill:#FFFFFF;}
	.st35{fill:#48C0BC;}
	.st36{clip-path:url(#SVGID_30_);}
	.st37{clip-path:url(#SVGID_31_);fill:#FFFFFF;}
	.st38{fill:#94D0C6;}
	.st39{clip-path:url(#SVGID_32_);}
	.st40{clip-path:url(#SVGID_33_);fill:#FFFFFF;}
	.st41{fill:#387192;}
	.st42{clip-path:url(#SVGID_34_);}
	.st43{clip-path:url(#SVGID_35_);fill:#FFFFFF;}
	.st44{fill:#AED256;}
	.st45{clip-path:url(#SVGID_36_);}
	.st46{clip-path:url(#SVGID_37_);fill:#FFFFFF;}
	.st47{fill:#7FB4D5;}
	.st48{clip-path:url(#SVGID_38_);}
	.st49{clip-path:url(#SVGID_39_);fill:#FFFFFF;}
	.st50{fill:#F7E38E;}
	.st51{clip-path:url(#SVGID_40_);}
	.st52{clip-path:url(#SVGID_41_);fill:#FFFFFF;}
	.st53{fill:#C83D28;}
	.st54{clip-path:url(#SVGID_42_);}
	.st55{clip-path:url(#SVGID_43_);fill:#FFFFFF;}
	.st56{fill:#2EA5DD;}
	.st57{clip-path:url(#SVGID_44_);}
	.st58{clip-path:url(#SVGID_45_);fill:#FFFFFF;}
	.st59{fill:#DCBCC4;}
	.st60{clip-path:url(#SVGID_46_);}
	.st61{clip-path:url(#SVGID_47_);fill:#FFFFFF;}
	.st62{fill:#C54696;}
	.st63{clip-path:url(#SVGID_48_);}
	.st64{clip-path:url(#SVGID_49_);fill:#FFFFFF;}
	.st65{fill:#9E1C42;}
	.st66{clip-path:url(#SVGID_50_);}
	.st67{clip-path:url(#SVGID_51_);fill:#FFFFFF;}
	.st68{fill:#73BE46;}
	.st69{clip-path:url(#SVGID_52_);}
	.st70{clip-path:url(#SVGID_53_);fill:#FFFFFF;}
	.st71{fill:#253D80;}
	.st72{clip-path:url(#SVGID_54_);}
	.st73{clip-path:url(#SVGID_55_);fill:#FFFFFF;}
	.st74{fill:#E41789;}
	.st75{clip-path:url(#SVGID_56_);}
	.st76{clip-path:url(#SVGID_57_);fill:#FFFFFF;}
	.st77{fill:#F8B449;}
	.st78{clip-path:url(#SVGID_58_);}
	.st79{clip-path:url(#SVGID_59_);fill:#FFFFFF;}
	.st80{clip-path:url(#SVGID_60_);}
	.st81{clip-path:url(#SVGID_61_);fill:#C7C8CA;}
	.st82{clip-path:url(#SVGID_62_);}
	.st83{clip-path:url(#SVGID_63_);fill:#C7C8CA;}
	.st84{clip-path:url(#SVGID_64_);}
	.st85{clip-path:url(#SVGID_65_);fill:#221F1F;}
	.st86{clip-path:url(#SVGID_66_);}
	.st87{clip-path:url(#SVGID_67_);fill:#221F1F;}
	.st88{clip-path:url(#SVGID_68_);}
	.st89{clip-path:url(#SVGID_69_);fill:#221F1F;}
	.st90{clip-path:url(#SVGID_70_);}
	.st91{clip-path:url(#SVGID_71_);fill:#221F1F;}
	.st92{clip-path:url(#SVGID_72_);}
	.st93{clip-path:url(#SVGID_73_);fill:#221F1F;}
	.st94{clip-path:url(#SVGID_74_);}
	.st95{clip-path:url(#SVGID_75_);fill:#221F1F;}
	.st96{clip-path:url(#SVGID_76_);}
	.st97{clip-path:url(#SVGID_77_);fill:#221F1F;}
	.st98{fill:#E34B43;}
	.st99{fill:#5FBA49;}
	.st100{fill:#DEB141;}
	.st101{fill:#C42439;}
	.st102{fill:#4DA348;}
	.st103{fill:#3E804C;}
	.st104{fill:#FBBF2B;}
	.st105{fill:#EF4E39;}
	.st106{fill:#F89B39;}
	.st107{fill:#0697D4;}
	.st108{fill:#9D1C49;}
	.st109{fill:#0ABFDF;}
	.st110{fill:#F2713A;}
	.st111{fill:#ED3047;}
	.st112{fill:#DF2370;}
	.st113{fill:#134C6C;}
	.st114{fill:#C09439;}
	.st115{fill:#066D9E;}
	.st116{fill:#F9B547;}
	.st117{fill:none;stroke:#3E96D0;stroke-width:1.5;stroke-linecap:round;stroke-miterlimit:10;}
	.st118{fill:none;stroke:#31B496;stroke-width:1.5;stroke-miterlimit:10;}
	.st119{clip-path:url(#SVGID_79_);}
	.st120{clip-path:url(#SVGID_80_);}
	.st121{clip-path:url(#SVGID_81_);}
	.st122{clip-path:url(#SVGID_82_);}
	.st123{fill:none;stroke:#E24F42;stroke-width:1.5;stroke-miterlimit:10;}
	.st124{clip-path:url(#SVGID_83_);}
	.st125{clip-path:url(#SVGID_85_);}
	.st126{fill:none;stroke:#EDC131;stroke-width:1.5;stroke-miterlimit:10;}
	.st127{clip-path:url(#SVGID_86_);}
	.st128{clip-path:url(#SVGID_88_);}
	.st129{clip-path:url(#SVGID_89_);}
	.st130{clip-path:url(#SVGID_90_);}
	.st131{fill:url(#path183_3_);}
	.st132{fill:url(#polygon185_3_);}
	.st133{fill:url(#path187_3_);}
	.st134{fill:url(#path191_3_);}
	.st135{fill:url(#rect193_3_);}
	.st136{fill:url(#path195_3_);}
	.st137{fill:url(#path197_3_);}
	.st138{fill:url(#path199_3_);}
	.st139{fill:url(#path201_3_);}
	.st140{fill:url(#polygon205_3_);}
	.st141{fill:url(#polygon207_3_);}
	.st142{fill:url(#polygon209_3_);}
	.st143{fill:url(#rect215_3_);}
	.st144{clip-path:url(#SVGID_92_);}
	.st145{clip-path:url(#SVGID_93_);}
	.st146{clip-path:url(#SVGID_94_);}
	.st147{clip-path:url(#SVGID_95_);}
	.st148{clip-path:url(#SVGID_96_);}
	.st149{clip-path:url(#SVGID_98_);}
	.st150{clip-path:url(#SVGID_99_);}
	.st151{clip-path:url(#SVGID_101_);}
	.st152{clip-path:url(#SVGID_102_);}
	.st153{clip-path:url(#SVGID_103_);}
	.st154{fill:url(#path183_4_);}
	.st155{fill:url(#polygon185_4_);}
	.st156{fill:url(#path187_4_);}
	.st157{fill:url(#path191_4_);}
	.st158{fill:url(#rect193_4_);}
	.st159{fill:url(#path195_4_);}
	.st160{fill:url(#path197_4_);}
	.st161{fill:url(#path199_4_);}
	.st162{fill:url(#path201_4_);}
	.st163{fill:url(#polygon205_4_);}
	.st164{fill:url(#polygon207_4_);}
	.st165{fill:url(#polygon209_4_);}
	.st166{fill:url(#rect215_4_);}
</style>
<g>
	<path class="st22" d="M75.3,46.6H44.5c-0.2,0-0.3,0.2-0.3,0.3v7c0,0.2,0.1,0.3,0.3,0.3h30.8c0.2,0,0.3-0.1,0.3-0.3v-7
		C75.6,46.7,75.5,46.6,75.3,46.6"/>
	<path class="st22" d="M75.6,33.8c0-0.2-0.1-0.3-0.3-0.3H49.7h-5.3c-0.2,0-0.3,0.2-0.3,0.3v2.7v4.2c0,0.2,0.1,0.3,0.3,0.3h30.8
		c0.2,0,0.3-0.2,0.3-0.3V33.8z"/>
	<path class="st22" d="M93.4,36.5c-1.3-5.1-3.6-9.6-6.6-13.5l-0.1,0.1c1,1.5,1.9,3,2.6,4.7c4,7.3,5.2,16.2,2.7,24.8
		C87,69.9,68.9,79.9,51.5,74.8c-7.3-2.1-13.3-6.6-17.4-12.3c-2.6-3.3-4.5-7.2-5.6-11.5c-4.1-16.5,6-33.3,22.5-37.4
		c10.2-2.5,20.5,0.4,27.9,6.8c0.1,0.1,0.1,0.1,0.2,0.2c0.2,0.1,0.4,0.3,0.7,0.3c0.3,0,0.6-0.1,0.8-0.3l0.1-0.1l3.9-3.9l0.3-0.3
		c0.1-0.2,0.3-0.4,0.3-0.7c0-0.3-0.1-0.6-0.3-0.8c0,0-0.1-0.1-0.1-0.1c-9-8.1-21.8-11.7-34.4-8.6C30,11.3,17.6,31.8,22.7,52.2
		c2.1,8.5,7,15.6,13.4,20.6c6.4,5.2,14.5,8.2,23,8.1c2.7,0,5.5-0.4,8.3-1.1C86.5,75.1,98.2,55.7,93.4,36.5"/>
</g>
</svg>
