<?xml version="1.0" encoding="utf-8"?>
<!-- Generator: Adobe Illustrator 19.1.0, SVG Export Plug-In . SVG Version: 6.00 Build 0)  -->
<svg version="1.1" id="Layer_1" xmlns="http://www.w3.org/2000/svg" xmlns:xlink="http://www.w3.org/1999/xlink" x="0px" y="0px"
	 viewBox="0 0 31.8 30.7" style="enable-background:new 0 0 31.8 30.7;" xml:space="preserve">
<style type="text/css">
	.st0{fill:#28AAE1;}
	.st1{fill:#3E8EDE;}
	.st2{fill:#5EB947;}
	.st3{fill:#E3B531;}
	.st4{fill:#C3202E;}
	.st5{fill:#4A9E46;}
	.st6{fill:#408045;}
	.st7{fill:#F7C118;}
	.st8{fill:#ED412A;}
	.st9{fill:#F89C28;}
	.st10{fill:#1A94D2;}
	.st11{fill:#A01C44;}
	.st12{fill:#27BBE0;}
	.st13{fill:#F06A2C;}
	.st14{fill:#E5243C;}
	.st15{fill:#DB1868;}
	.st16{fill:#15486A;}
	.st17{fill:#C4952D;}
	.st18{fill:#046A9B;}
	.st19{fill:#E24F42;}
	.st20{fill:#31B496;}
	.st21{fill:#EDC131;}
	.st22{fill:#4D4C4C;}
	.st23{fill:#010101;}
	.st24{fill:none;stroke:#F2F2F2;stroke-width:22;stroke-miterlimit:10;}
	.st25{fill:#FFFFFF;}
	.st26{fill:#3E96D0;}
	.st27{fill:#F2F2F2;}
	.st28{fill:none;stroke:url(#SVGID_2_);stroke-width:6.6762;stroke-linecap:round;stroke-miterlimit:10;}
	.st29{fill:#E51488;}
	.st30{fill:#E6E6E6;}
	.st31{fill:#71358F;}
	.st32{opacity:0.85;enable-background:new    ;}
	.st33{clip-path:url(#SVGID_3_);}
	.st34{clip-path:url(#SVGID_4_);fill:#FFFFFF;}
	.st35{fill:#48C0BC;}
	.st36{clip-path:url(#SVGID_5_);}
	.st37{clip-path:url(#SVGID_14_);fill:#FFFFFF;}
	.st38{fill:#94D0C6;}
	.st39{clip-path:url(#SVGID_16_);}
	.st40{clip-path:url(#SVGID_18_);fill:#FFFFFF;}
	.st41{fill:#387192;}
	.st42{clip-path:url(#SVGID_20_);}
	.st43{clip-path:url(#SVGID_22_);fill:#FFFFFF;}
	.st44{fill:#AED256;}
	.st45{clip-path:url(#SVGID_23_);}
	.st46{clip-path:url(#SVGID_24_);fill:#FFFFFF;}
	.st47{fill:#7FB4D5;}
	.st48{clip-path:url(#SVGID_25_);}
	.st49{clip-path:url(#SVGID_26_);fill:#FFFFFF;}
	.st50{fill:#F7E38E;}
	.st51{clip-path:url(#SVGID_27_);}
	.st52{clip-path:url(#SVGID_28_);fill:#FFFFFF;}
	.st53{fill:#C83D28;}
	.st54{clip-path:url(#SVGID_29_);}
	.st55{clip-path:url(#SVGID_30_);fill:#FFFFFF;}
	.st56{fill:#2EA5DD;}
	.st57{clip-path:url(#SVGID_31_);}
	.st58{clip-path:url(#SVGID_32_);fill:#FFFFFF;}
	.st59{fill:#DCBCC4;}
	.st60{clip-path:url(#SVGID_33_);}
	.st61{clip-path:url(#SVGID_34_);fill:#FFFFFF;}
	.st62{fill:#C54696;}
	.st63{clip-path:url(#SVGID_35_);}
	.st64{clip-path:url(#SVGID_36_);fill:#FFFFFF;}
	.st65{fill:#9E1C42;}
	.st66{clip-path:url(#SVGID_37_);}
	.st67{clip-path:url(#SVGID_38_);fill:#FFFFFF;}
	.st68{fill:#73BE46;}
	.st69{clip-path:url(#SVGID_39_);}
	.st70{clip-path:url(#SVGID_40_);fill:#FFFFFF;}
	.st71{fill:#253D80;}
	.st72{clip-path:url(#SVGID_41_);}
	.st73{clip-path:url(#SVGID_42_);fill:#FFFFFF;}
	.st74{fill:#E41789;}
	.st75{clip-path:url(#SVGID_43_);}
	.st76{clip-path:url(#SVGID_44_);fill:#FFFFFF;}
	.st77{fill:#F8B449;}
	.st78{clip-path:url(#SVGID_45_);}
	.st79{clip-path:url(#SVGID_46_);fill:#FFFFFF;}
	.st80{clip-path:url(#SVGID_47_);}
	.st81{clip-path:url(#SVGID_48_);fill:#C7C8CA;}
	.st82{clip-path:url(#SVGID_49_);}
	.st83{clip-path:url(#SVGID_50_);fill:#C7C8CA;}
	.st84{clip-path:url(#SVGID_51_);}
	.st85{clip-path:url(#SVGID_52_);fill:#221F1F;}
	.st86{clip-path:url(#SVGID_53_);}
	.st87{clip-path:url(#SVGID_54_);fill:#221F1F;}
	.st88{clip-path:url(#SVGID_55_);}
	.st89{clip-path:url(#SVGID_56_);fill:#221F1F;}
	.st90{clip-path:url(#SVGID_57_);}
	.st91{clip-path:url(#SVGID_58_);fill:#221F1F;}
	.st92{clip-path:url(#SVGID_59_);}
	.st93{clip-path:url(#SVGID_60_);fill:#221F1F;}
	.st94{clip-path:url(#SVGID_61_);}
	.st95{clip-path:url(#SVGID_62_);fill:#221F1F;}
	.st96{clip-path:url(#SVGID_63_);}
	.st97{clip-path:url(#SVGID_64_);fill:#221F1F;}
	.st98{fill:#E34B43;}
	.st99{fill:#5FBA49;}
	.st100{fill:#DEB141;}
	.st101{fill:#C42439;}
	.st102{fill:#4DA348;}
	.st103{fill:#3E804C;}
	.st104{fill:#FBBF2B;}
	.st105{fill:#EF4E39;}
	.st106{fill:#F89B39;}
	.st107{fill:#0697D4;}
	.st108{fill:#9D1C49;}
	.st109{fill:#0ABFDF;}
	.st110{fill:#F2713A;}
	.st111{fill:#ED3047;}
	.st112{fill:#DF2370;}
	.st113{fill:#134C6C;}
	.st114{fill:#C09439;}
	.st115{fill:#066D9E;}
	.st116{fill:#F9B547;}
	.st117{fill:none;stroke:#3E96D0;stroke-width:1.5;stroke-linecap:round;stroke-miterlimit:10;}
	.st118{fill:none;stroke:#31B496;stroke-width:1.5;stroke-miterlimit:10;}
	.st119{clip-path:url(#SVGID_66_);}
	.st120{clip-path:url(#SVGID_67_);}
	.st121{clip-path:url(#SVGID_68_);}
	.st122{clip-path:url(#SVGID_69_);}
	.st123{fill:none;stroke:#E24F42;stroke-width:1.5;stroke-miterlimit:10;}
	.st124{clip-path:url(#SVGID_70_);}
	.st125{clip-path:url(#SVGID_72_);}
	.st126{fill:none;stroke:#EDC131;stroke-width:1.5;stroke-miterlimit:10;}
	.st127{clip-path:url(#SVGID_73_);}
	.st128{clip-path:url(#SVGID_75_);}
	.st129{clip-path:url(#SVGID_76_);}
	.st130{clip-path:url(#SVGID_77_);}
	.st131{fill:url(#path183_2_);}
	.st132{fill:url(#polygon185_2_);}
	.st133{fill:url(#path187_2_);}
	.st134{fill:url(#path191_2_);}
	.st135{fill:url(#rect193_2_);}
	.st136{fill:url(#path195_2_);}
	.st137{fill:url(#path197_2_);}
	.st138{fill:url(#path199_2_);}
	.st139{fill:url(#path201_2_);}
	.st140{fill:url(#polygon205_2_);}
	.st141{fill:url(#polygon207_2_);}
	.st142{fill:url(#polygon209_2_);}
	.st143{fill:url(#rect215_2_);}
</style>
<g id="XMLID_42_">
	<path id="XMLID_83_" class="st99" d="M9.5,11.6c0.3-0.6,0.7-1.1,1.2-1.5L6.9,5.9c-1,0.9-1.8,2-2.4,3.2L9.5,11.6z"/>
	<path id="XMLID_82_" class="st100" d="M18.9,8.6c0.6,0.3,1.1,0.6,1.6,1l3.9-4.2c-1-0.9-2.2-1.6-3.4-2.1L18.9,8.6z"/>
	<path id="XMLID_81_" class="st101" d="M27.8,9.9l-5.1,2.5c0.2,0.6,0.4,1.2,0.5,1.8l5.7-0.5C28.7,12.4,28.3,11.1,27.8,9.9"/>
	<path id="XMLID_80_" class="st102" d="M22.3,11.7l5.1-2.5C26.8,8,26,6.9,25,6l-3.9,4.2C21.6,10.6,22,11.1,22.3,11.7"/>
	<path id="XMLID_79_" class="st103" d="M8.5,15.3c0-0.1,0-0.2,0-0.3l-5.7-0.5c0,0.3,0,0.6,0,0.9c0,1.1,0.1,2.1,0.4,3.2l5.5-1.6
		C8.6,16.4,8.5,15.9,8.5,15.3"/>
	<path id="XMLID_68_" class="st104" d="M21.6,20c-0.4,0.5-0.9,0.9-1.4,1.3l3,4.9c1.1-0.8,2.1-1.7,2.9-2.7L21.6,20z"/>
	<path id="XMLID_66_" class="st105" d="M23.3,15.3c0,0.5-0.1,1.1-0.2,1.6l5.5,1.6c0.3-1,0.4-2.1,0.4-3.1c0-0.3,0-0.5,0-0.8l-5.7,0.5
		C23.3,15.2,23.3,15.2,23.3,15.3"/>
	<path id="XMLID_64_" class="st106" d="M10.3,20.1l-4.5,3.5c0.8,1,1.8,1.9,3,2.7l3-4.9C11.2,21,10.7,20.6,10.3,20.1"/>
	<path id="XMLID_63_" class="st107" d="M8.6,14.2c0.1-0.6,0.3-1.3,0.5-1.8L4,9.8c-0.6,1.2-1,2.5-1.1,3.9L8.6,14.2z"/>
	<path id="XMLID_57_" class="st108" d="M22.5,26.6l-3-4.9c-0.5,0.3-1.1,0.5-1.7,0.7l1.1,5.6C20.1,27.8,21.4,27.3,22.5,26.6"/>
	<path id="XMLID_53_" class="st109" d="M22.9,17.7c-0.2,0.6-0.5,1.1-0.8,1.6l4.6,3.4c0.7-1.1,1.3-2.2,1.7-3.5L22.9,17.7z"/>
	<path id="XMLID_51_" class="st110" d="M16.9,22.6c-0.3,0.1-0.7,0.1-1.1,0.1c-0.3,0-0.6,0-0.9-0.1L14,28.3c0.6,0.1,1.3,0.1,1.9,0.1
		c0.7,0,1.4-0.1,2.1-0.2L16.9,22.6z"/>
	<path id="XMLID_48_" class="st111" d="M16.4,8c0.6,0,1.2,0.2,1.8,0.4L20.2,3c-1.2-0.4-2.5-0.7-3.9-0.7V8z"/>
	<path id="XMLID_47_" class="st112" d="M14.2,22.5c-0.6-0.1-1.2-0.4-1.8-0.7l-3,4.9c1.2,0.7,2.4,1.2,3.8,1.4L14.2,22.5z"/>
	<path id="XMLID_46_" class="st113" d="M13.7,8.3C14.3,8.1,14.9,8,15.5,8V2.3c-1.4,0-2.7,0.3-3.9,0.7L13.7,8.3z"/>
	<path id="XMLID_44_" class="st114" d="M9.8,19.5c-0.4-0.5-0.7-1.1-0.9-1.7l-5.5,1.6c0.4,1.3,1,2.5,1.8,3.6L9.8,19.5z"/>
	<path id="XMLID_43_" class="st115" d="M11.3,9.5c0.5-0.4,1-0.7,1.6-1l-2.1-5.3C9.6,3.8,8.5,4.5,7.5,5.3L11.3,9.5z"/>
</g>
</svg>
