<?xml version="1.0" encoding="utf-8"?>
<!-- Generator: Adobe Illustrator 19.1.0, SVG Export Plug-In . SVG Version: 6.00 Build 0)  -->
<svg version="1.1" id="Layer_1" xmlns="http://www.w3.org/2000/svg" xmlns:xlink="http://www.w3.org/1999/xlink" x="0px" y="0px"
	 viewBox="0 0 116 86" style="enable-background:new 0 0 116 86;" xml:space="preserve">
<style type="text/css">
	.st0{fill:#28AAE1;}
	.st1{fill:#3E8EDE;}
	.st2{fill:#5EB947;}
	.st3{fill:#E3B531;}
	.st4{fill:#C3202E;}
	.st5{fill:#4A9E46;}
	.st6{fill:#408045;}
	.st7{fill:#F7C118;}
	.st8{fill:#ED412A;}
	.st9{fill:#F89C28;}
	.st10{fill:#1A94D2;}
	.st11{fill:#A01C44;}
	.st12{fill:#27BBE0;}
	.st13{fill:#F06A2C;}
	.st14{fill:#E5243C;}
	.st15{fill:#DB1868;}
	.st16{fill:#15486A;}
	.st17{fill:#C4952D;}
	.st18{fill:#046A9B;}
	.st19{fill:#E24F42;}
	.st20{fill:#31B496;}
	.st21{fill:#EDC131;}
	.st22{fill:#4D4C4C;}
	.st23{fill:#010101;}
	.st24{fill:none;stroke:#F2F2F2;stroke-width:22;stroke-miterlimit:10;}
	.st25{fill:#FFFFFF;}
	.st26{fill:#3E96D0;}
	.st27{fill:#F2F2F2;}
	.st28{fill:none;stroke:url(#SVGID_27_);stroke-width:6.6762;stroke-linecap:round;stroke-miterlimit:10;}
	.st29{fill:#E51488;}
	.st30{fill:#E6E6E6;}
	.st31{fill:#71358F;}
	.st32{opacity:0.85;enable-background:new    ;}
	.st33{clip-path:url(#SVGID_28_);}
	.st34{clip-path:url(#SVGID_29_);fill:#FFFFFF;}
	.st35{fill:#48C0BC;}
	.st36{clip-path:url(#SVGID_30_);}
	.st37{clip-path:url(#SVGID_31_);fill:#FFFFFF;}
	.st38{fill:#94D0C6;}
	.st39{clip-path:url(#SVGID_32_);}
	.st40{clip-path:url(#SVGID_33_);fill:#FFFFFF;}
	.st41{fill:#387192;}
	.st42{clip-path:url(#SVGID_34_);}
	.st43{clip-path:url(#SVGID_35_);fill:#FFFFFF;}
	.st44{fill:#AED256;}
	.st45{clip-path:url(#SVGID_36_);}
	.st46{clip-path:url(#SVGID_37_);fill:#FFFFFF;}
	.st47{fill:#7FB4D5;}
	.st48{clip-path:url(#SVGID_38_);}
	.st49{clip-path:url(#SVGID_39_);fill:#FFFFFF;}
	.st50{fill:#F7E38E;}
	.st51{clip-path:url(#SVGID_40_);}
	.st52{clip-path:url(#SVGID_41_);fill:#FFFFFF;}
	.st53{fill:#C83D28;}
	.st54{clip-path:url(#SVGID_42_);}
	.st55{clip-path:url(#SVGID_43_);fill:#FFFFFF;}
	.st56{fill:#2EA5DD;}
	.st57{clip-path:url(#SVGID_44_);}
	.st58{clip-path:url(#SVGID_45_);fill:#FFFFFF;}
	.st59{fill:#DCBCC4;}
	.st60{clip-path:url(#SVGID_46_);}
	.st61{clip-path:url(#SVGID_47_);fill:#FFFFFF;}
	.st62{fill:#C54696;}
	.st63{clip-path:url(#SVGID_48_);}
	.st64{clip-path:url(#SVGID_49_);fill:#FFFFFF;}
	.st65{fill:#9E1C42;}
	.st66{clip-path:url(#SVGID_50_);}
	.st67{clip-path:url(#SVGID_51_);fill:#FFFFFF;}
	.st68{fill:#73BE46;}
	.st69{clip-path:url(#SVGID_52_);}
	.st70{clip-path:url(#SVGID_53_);fill:#FFFFFF;}
	.st71{fill:#253D80;}
	.st72{clip-path:url(#SVGID_54_);}
	.st73{clip-path:url(#SVGID_55_);fill:#FFFFFF;}
	.st74{fill:#E41789;}
	.st75{clip-path:url(#SVGID_56_);}
	.st76{clip-path:url(#SVGID_57_);fill:#FFFFFF;}
	.st77{fill:#F8B449;}
	.st78{clip-path:url(#SVGID_58_);}
	.st79{clip-path:url(#SVGID_59_);fill:#FFFFFF;}
	.st80{clip-path:url(#SVGID_60_);}
	.st81{clip-path:url(#SVGID_61_);fill:#C7C8CA;}
	.st82{clip-path:url(#SVGID_62_);}
	.st83{clip-path:url(#SVGID_63_);fill:#C7C8CA;}
	.st84{clip-path:url(#SVGID_64_);}
	.st85{clip-path:url(#SVGID_65_);fill:#221F1F;}
	.st86{clip-path:url(#SVGID_66_);}
	.st87{clip-path:url(#SVGID_67_);fill:#221F1F;}
	.st88{clip-path:url(#SVGID_68_);}
	.st89{clip-path:url(#SVGID_69_);fill:#221F1F;}
	.st90{clip-path:url(#SVGID_70_);}
	.st91{clip-path:url(#SVGID_71_);fill:#221F1F;}
	.st92{clip-path:url(#SVGID_72_);}
	.st93{clip-path:url(#SVGID_73_);fill:#221F1F;}
	.st94{clip-path:url(#SVGID_74_);}
	.st95{clip-path:url(#SVGID_75_);fill:#221F1F;}
	.st96{clip-path:url(#SVGID_76_);}
	.st97{clip-path:url(#SVGID_77_);fill:#221F1F;}
	.st98{fill:#E34B43;}
	.st99{fill:#5FBA49;}
	.st100{fill:#DEB141;}
	.st101{fill:#C42439;}
	.st102{fill:#4DA348;}
	.st103{fill:#3E804C;}
	.st104{fill:#FBBF2B;}
	.st105{fill:#EF4E39;}
	.st106{fill:#F89B39;}
	.st107{fill:#0697D4;}
	.st108{fill:#9D1C49;}
	.st109{fill:#0ABFDF;}
	.st110{fill:#F2713A;}
	.st111{fill:#ED3047;}
	.st112{fill:#DF2370;}
	.st113{fill:#134C6C;}
	.st114{fill:#C09439;}
	.st115{fill:#066D9E;}
	.st116{fill:#F9B547;}
	.st117{fill:none;stroke:#3E96D0;stroke-width:1.5;stroke-linecap:round;stroke-miterlimit:10;}
	.st118{fill:none;stroke:#31B496;stroke-width:1.5;stroke-miterlimit:10;}
	.st119{clip-path:url(#SVGID_79_);}
	.st120{clip-path:url(#SVGID_80_);}
	.st121{clip-path:url(#SVGID_81_);}
	.st122{clip-path:url(#SVGID_82_);}
	.st123{fill:none;stroke:#E24F42;stroke-width:1.5;stroke-miterlimit:10;}
	.st124{clip-path:url(#SVGID_83_);}
	.st125{clip-path:url(#SVGID_85_);}
	.st126{fill:none;stroke:#EDC131;stroke-width:1.5;stroke-miterlimit:10;}
	.st127{clip-path:url(#SVGID_86_);}
	.st128{clip-path:url(#SVGID_88_);}
	.st129{clip-path:url(#SVGID_89_);}
	.st130{clip-path:url(#SVGID_90_);}
	.st131{fill:url(#path183_3_);}
	.st132{fill:url(#polygon185_3_);}
	.st133{fill:url(#path187_3_);}
	.st134{fill:url(#path191_3_);}
	.st135{fill:url(#rect193_3_);}
	.st136{fill:url(#path195_3_);}
	.st137{fill:url(#path197_3_);}
	.st138{fill:url(#path199_3_);}
	.st139{fill:url(#path201_3_);}
	.st140{fill:url(#polygon205_3_);}
	.st141{fill:url(#polygon207_3_);}
	.st142{fill:url(#polygon209_3_);}
	.st143{fill:url(#rect215_3_);}
	.st144{clip-path:url(#SVGID_92_);}
	.st145{clip-path:url(#SVGID_93_);}
	.st146{clip-path:url(#SVGID_94_);}
	.st147{clip-path:url(#SVGID_95_);}
	.st148{clip-path:url(#SVGID_96_);}
	.st149{clip-path:url(#SVGID_98_);}
	.st150{clip-path:url(#SVGID_99_);}
	.st151{clip-path:url(#SVGID_101_);}
	.st152{clip-path:url(#SVGID_102_);}
	.st153{clip-path:url(#SVGID_103_);}
	.st154{fill:url(#path183_4_);}
	.st155{fill:url(#polygon185_4_);}
	.st156{fill:url(#path187_4_);}
	.st157{fill:url(#path191_4_);}
	.st158{fill:url(#rect193_4_);}
	.st159{fill:url(#path195_4_);}
	.st160{fill:url(#path197_4_);}
	.st161{fill:url(#path199_4_);}
	.st162{fill:url(#path201_4_);}
	.st163{fill:url(#polygon205_4_);}
	.st164{fill:url(#polygon207_4_);}
	.st165{fill:url(#polygon209_4_);}
	.st166{fill:url(#rect215_4_);}
</style>
<g>
	<path class="st25" d="M83.9,9.9c0,0-1.5,1.9-1,3.8c0.4,1.9,2.6,3,2.6,3s1.5-1.9,1-3.8C86.1,11,83.9,9.9,83.9,9.9"/>
	<path class="st25" d="M81.5,20.9c0,0,1.5-1.9,1-3.8c-0.4-1.9-2.6-3-2.6-3s-1.5,1.9-1,3.8C79.4,19.8,81.5,20.9,81.5,20.9"/>
	<path class="st25" d="M87.5,18.8c0,0,1.5,1.6,3.3,1.4c1.8-0.2,3-2,3-2s-1.5-1.6-3.3-1.4C88.8,17,87.5,18.8,87.5,18.8"/>
	<path class="st25" d="M90,10.6c-1.4,1.4-1.2,4-1.2,4s2.5,0.2,3.9-1.2c1.4-1.4,1.2-4,1.2-4S91.5,9.1,90,10.6"/>
	<path class="st25" d="M86.9,24.6c1.7,0.2,3.4-1.3,3.4-1.3s-1.2-1.8-2.9-2c-1.7-0.2-3.4,1.3-3.4,1.3S85.1,24.4,86.9,24.6"/>
	<path class="st25" d="M88.5,52.6h-13c-1,0-1.8,0.8-1.8,1.8c0,1,0.8,1.8,1.8,1.8h13c1,0,1.8-0.8,1.8-1.8
		C90.3,53.5,89.5,52.6,88.5,52.6"/>
	<path class="st25" d="M88.5,73h-13c-1,0-1.8,0.8-1.8,1.8c0,1,0.8,1.8,1.8,1.8h13c1,0,1.8-0.8,1.8-1.8C90.3,73.8,89.5,73,88.5,73"/>
	<path class="st25" d="M29.8,48.2c-0.3-0.1-0.6-0.2-0.9-0.2C28.9,47.9,29.2,48,29.8,48.2"/>
	<path class="st25" d="M88,57.6H75.9c-0.6,0-1.1,0.5-1.1,1.1v3.7l-7.9,0.9l-11.5-0.3v-7c1.5-0.2,3.1-0.5,4.6-0.9
		c11.1-3.1,13.5-10,13.3-16.4c-0.2-6.5,1.8-9,4.8-10.1c0.9-0.3,1.7-0.5,2.5-0.7c0,1.6,0.4,3.4,1.1,5.6c0.3,0,0.5,0,0.8-0.1
		c-0.7-2.3-1.1-4.1-1.1-5.7c1.5-0.2,2.6-0.1,2.6-0.1s-1-0.6-2.5-1.8c0.5-3.1,2.3-4.9,4.2-6.9c1-1.1,2.1-2.2,2.9-3.5l-0.7-0.4
		c-0.8,1.2-1.8,2.3-2.8,3.3c-1.8,1.9-3.7,3.8-4.3,6.8c-0.6-0.5-1.2-1.2-1.9-1.9c-2.7-3.1-6.3-0.8-11.3,3.9c-5,4.7-11.3,4.8-17.5-1.5
		c-8.1-8.3-15.2-8.3-20.1-7.8c3.3,1.4,4.5,4.5,6.2,12.4c1.8,8.3,6.2,12.1,12.3,12.6c-2.8,0.5-3.6,0.9-8.1,4
		c-3.5,2.4-8.5,1.7-10.6,1.2c3.7,1.2,8.1,5.1,12.1,6.4c2.3,0.8,4.7,1.3,7.2,1.5v6.7l-21.9-0.5V67l39.8-0.9l7.9,0.9v3.7
		c0,0.6,0.5,1.1,1.1,1.1H88c0.6,0,1.1-0.5,1.1-1.1v-12C89,58.1,88.6,57.6,88,57.6z M50.9,56.2c0.9,0,1.7,0,2.6-0.1v6.8l-2.6-0.1
		V56.2z"/>
	<path class="st25" d="M26,66.2c0,1-0.7,1.8-1.5,1.8h-0.9c-0.9,0-1.5-0.8-1.5-1.8V63c0-1,0.7-1.8,1.5-1.8h0.9c0.9,0,1.5,0.8,1.5,1.8
		V66.2z"/>
</g>
</svg>
