<?xml version="1.0" encoding="utf-8"?>
<!-- Generator: Adobe Illustrator 19.1.0, SVG Export Plug-In . SVG Version: 6.00 Build 0)  -->
<svg version="1.1" id="Layer_1" xmlns="http://www.w3.org/2000/svg" xmlns:xlink="http://www.w3.org/1999/xlink" x="0px" y="0px"
	 viewBox="0 0 102.3 104.9" style="enable-background:new 0 0 102.3 104.9;" xml:space="preserve">
<style type="text/css">
	.st0{fill:#28AAE1;}
	.st1{fill:#3E8EDE;}
	.st2{fill:#5EB947;}
	.st3{fill:#E3B531;}
	.st4{fill:#C3202E;}
	.st5{fill:#4A9E46;}
	.st6{fill:#408045;}
	.st7{fill:#F7C118;}
	.st8{fill:#ED412A;}
	.st9{fill:#F89C28;}
	.st10{fill:#1A94D2;}
	.st11{fill:#A01C44;}
	.st12{fill:#27BBE0;}
	.st13{fill:#F06A2C;}
	.st14{fill:#E5243C;}
	.st15{fill:#DB1868;}
	.st16{fill:#15486A;}
	.st17{fill:#C4952D;}
	.st18{fill:#046A9B;}
	.st19{fill:#E24F42;}
	.st20{fill:#31B496;}
	.st21{fill:#EDC131;}
	.st22{fill:#4D4C4C;}
	.st23{fill:#010101;}
	.st24{fill:none;stroke:#F2F2F2;stroke-width:22;stroke-miterlimit:10;}
	.st25{fill:#FFFFFF;}
	.st26{fill:#3E96D0;}
	.st27{fill:#F2F2F2;}
	.st28{fill:none;stroke:url(#SVGID_2_);stroke-width:6.6762;stroke-linecap:round;stroke-miterlimit:10;}
	.st29{fill:#E51488;}
	.st30{fill:#E6E6E6;}
	.st31{fill:#71358F;}
	.st32{opacity:0.85;enable-background:new    ;}
	.st33{clip-path:url(#SVGID_3_);}
	.st34{clip-path:url(#SVGID_4_);fill:#FFFFFF;}
	.st35{fill:#48C0BC;}
	.st36{clip-path:url(#SVGID_5_);}
	.st37{clip-path:url(#SVGID_14_);fill:#FFFFFF;}
	.st38{fill:#94D0C6;}
	.st39{clip-path:url(#SVGID_16_);}
	.st40{clip-path:url(#SVGID_18_);fill:#FFFFFF;}
	.st41{fill:#387192;}
	.st42{clip-path:url(#SVGID_20_);}
	.st43{clip-path:url(#SVGID_22_);fill:#FFFFFF;}
	.st44{fill:#AED256;}
	.st45{clip-path:url(#SVGID_23_);}
	.st46{clip-path:url(#SVGID_24_);fill:#FFFFFF;}
	.st47{fill:#7FB4D5;}
	.st48{clip-path:url(#SVGID_25_);}
	.st49{clip-path:url(#SVGID_26_);fill:#FFFFFF;}
	.st50{fill:#F7E38E;}
	.st51{clip-path:url(#SVGID_27_);}
	.st52{clip-path:url(#SVGID_28_);fill:#FFFFFF;}
	.st53{fill:#C83D28;}
	.st54{clip-path:url(#SVGID_29_);}
	.st55{clip-path:url(#SVGID_30_);fill:#FFFFFF;}
	.st56{fill:#2EA5DD;}
	.st57{clip-path:url(#SVGID_31_);}
	.st58{clip-path:url(#SVGID_32_);fill:#FFFFFF;}
	.st59{fill:#DCBCC4;}
	.st60{clip-path:url(#SVGID_33_);}
	.st61{clip-path:url(#SVGID_34_);fill:#FFFFFF;}
	.st62{fill:#C54696;}
	.st63{clip-path:url(#SVGID_35_);}
	.st64{clip-path:url(#SVGID_36_);fill:#FFFFFF;}
	.st65{fill:#9E1C42;}
	.st66{clip-path:url(#SVGID_37_);}
	.st67{clip-path:url(#SVGID_38_);fill:#FFFFFF;}
	.st68{fill:#73BE46;}
	.st69{clip-path:url(#SVGID_39_);}
	.st70{clip-path:url(#SVGID_40_);fill:#FFFFFF;}
	.st71{fill:#253D80;}
	.st72{clip-path:url(#SVGID_41_);}
	.st73{clip-path:url(#SVGID_42_);fill:#FFFFFF;}
	.st74{fill:#E41789;}
	.st75{clip-path:url(#SVGID_43_);}
	.st76{clip-path:url(#SVGID_44_);fill:#FFFFFF;}
	.st77{fill:#F8B449;}
	.st78{clip-path:url(#SVGID_45_);}
	.st79{clip-path:url(#SVGID_46_);fill:#FFFFFF;}
	.st80{clip-path:url(#SVGID_47_);}
	.st81{clip-path:url(#SVGID_48_);fill:#C7C8CA;}
	.st82{clip-path:url(#SVGID_49_);}
	.st83{clip-path:url(#SVGID_50_);fill:#C7C8CA;}
	.st84{clip-path:url(#SVGID_51_);}
	.st85{clip-path:url(#SVGID_52_);fill:#221F1F;}
	.st86{clip-path:url(#SVGID_53_);}
	.st87{clip-path:url(#SVGID_54_);fill:#221F1F;}
	.st88{clip-path:url(#SVGID_55_);}
	.st89{clip-path:url(#SVGID_56_);fill:#221F1F;}
	.st90{clip-path:url(#SVGID_57_);}
	.st91{clip-path:url(#SVGID_58_);fill:#221F1F;}
	.st92{clip-path:url(#SVGID_59_);}
	.st93{clip-path:url(#SVGID_60_);fill:#221F1F;}
	.st94{clip-path:url(#SVGID_61_);}
	.st95{clip-path:url(#SVGID_62_);fill:#221F1F;}
	.st96{clip-path:url(#SVGID_63_);}
	.st97{clip-path:url(#SVGID_64_);fill:#221F1F;}
	.st98{fill:#E34B43;}
	.st99{fill:#5FBA49;}
	.st100{fill:#DEB141;}
	.st101{fill:#C42439;}
	.st102{fill:#4DA348;}
	.st103{fill:#3E804C;}
	.st104{fill:#FBBF2B;}
	.st105{fill:#EF4E39;}
	.st106{fill:#F89B39;}
	.st107{fill:#0697D4;}
	.st108{fill:#9D1C49;}
	.st109{fill:#0ABFDF;}
	.st110{fill:#F2713A;}
	.st111{fill:#ED3047;}
	.st112{fill:#DF2370;}
	.st113{fill:#134C6C;}
	.st114{fill:#C09439;}
	.st115{fill:#066D9E;}
	.st116{fill:#F9B547;}
	.st117{fill:none;stroke:#3E96D0;stroke-width:1.5;stroke-linecap:round;stroke-miterlimit:10;}
	.st118{fill:none;stroke:#31B496;stroke-width:1.5;stroke-miterlimit:10;}
	.st119{clip-path:url(#SVGID_66_);}
	.st120{clip-path:url(#SVGID_67_);}
	.st121{clip-path:url(#SVGID_68_);}
	.st122{clip-path:url(#SVGID_69_);}
	.st123{fill:none;stroke:#E24F42;stroke-width:1.5;stroke-miterlimit:10;}
	.st124{clip-path:url(#SVGID_70_);}
	.st125{clip-path:url(#SVGID_72_);}
	.st126{fill:none;stroke:#EDC131;stroke-width:1.5;stroke-miterlimit:10;}
	.st127{clip-path:url(#SVGID_73_);}
	.st128{clip-path:url(#SVGID_75_);}
	.st129{clip-path:url(#SVGID_76_);}
	.st130{clip-path:url(#SVGID_77_);}
	.st131{fill:url(#path183_2_);}
	.st132{fill:url(#polygon185_2_);}
	.st133{fill:url(#path187_2_);}
	.st134{fill:url(#path191_2_);}
	.st135{fill:url(#rect193_2_);}
	.st136{fill:url(#path195_2_);}
	.st137{fill:url(#path197_2_);}
	.st138{fill:url(#path199_2_);}
	.st139{fill:url(#path201_2_);}
	.st140{fill:url(#polygon205_2_);}
	.st141{fill:url(#polygon207_2_);}
	.st142{fill:url(#polygon209_2_);}
	.st143{fill:url(#rect215_2_);}
</style>
<g>
	<g>
		<g>
			<g>
				<g>
					<path class="st0" d="M0.6,66.7h3.6c3.2,0,5.3,2.2,5.3,5.5v0.1c0,3.2-2.1,5.5-5.3,5.5H0.6V66.7z M2.9,68.7v6.9h1.3
						c1.7,0,2.9-1.2,2.9-3.4v-0.1c0-2.2-1.2-3.4-2.9-3.4H2.9z"/>
				</g>
				<g>
					<path class="st0" d="M10.7,66.7h7.1v2.1h-4.9v2.4h4.3v2.1h-4.3v2.5h4.9v2.1h-7.2V66.7z"/>
				</g>
				<g>
					<path class="st0" d="M18.2,66.7h2.5l2.3,7.6l2.3-7.6h2.4l-3.7,11.1H22L18.2,66.7z"/>
				</g>
				<g>
					<path class="st0" d="M28.6,66.7h7.1v2.1h-4.9v2.4h4.3v2.1h-4.3v2.5h4.9v2.1h-7.2V66.7z"/>
				</g>
				<g>
					<path class="st0" d="M37,66.7h2.3v9h4.5v2.1H37V66.7z"/>
				</g>
				<g>
					<path class="st0" d="M43.8,72.3v-0.2c0-3.3,2.1-5.7,5-5.7c2.9,0,5,2.3,5,5.6v0.2c0,3.3-2.1,5.7-5,5.7
						C45.9,77.9,43.8,75.6,43.8,72.3z M51.5,72.3v-0.1c0-2.2-1.1-3.6-2.6-3.6c-1.6,0-2.6,1.4-2.6,3.5v0.1c0,2.2,1.1,3.6,2.7,3.6
						C50.4,75.8,51.5,74.5,51.5,72.3z"/>
				</g>
				<g>
					<path class="st0" d="M55.1,66.7h3.7c2.5,0,4.1,1.4,4.1,3.8v0c0,2.5-1.8,3.8-4.1,3.9h-1.3v3.4h-2.3V66.7z M58.6,72.3
						c1.2,0,1.9-0.7,1.9-1.8v0c0-1.2-0.7-1.8-1.9-1.8h-1.3v3.6H58.6z"/>
				</g>
				<g>
					<path class="st0" d="M63.7,66.7h2.4l2.5,4.5l2.4-4.5h2.4v11.1h-2.2v-7.1l-2.6,4.6h0L66,70.7v7h-2.2V66.7z"/>
				</g>
				<g>
					<path class="st0" d="M75.1,66.7h7.1v2.1h-4.9v2.4h4.3v2.1h-4.3v2.5h4.9v2.1h-7.2V66.7z"/>
				</g>
				<g>
					<path class="st0" d="M83.5,66.7h2.1l4.2,6.5v-6.5h2.2v11.1h-2l-4.4-6.7v6.7h-2.2V66.7z"/>
				</g>
				<g>
					<path class="st0" d="M95.9,68.8h-2.8v-2.1h7.9v2.1h-2.8v9h-2.3V68.8z"/>
				</g>
			</g>
			<g>
				<g>
					<path class="st0" d="M-0.2,61.4l1.5-1.9c0.8,0.7,1.8,1.4,3,1.4c1,0,1.6-0.5,1.6-1.2v0c0-0.6-0.3-1-2.1-1.6
						c-2.2-0.8-3.5-1.6-3.5-3.7v0c0-2.1,1.6-3.6,4-3.6c1.4,0,2.8,0.5,3.9,1.5l-1.4,1.9C6,53.5,5.1,53,4.2,53c-0.9,0-1.4,0.4-1.4,1.1
						v0c0,0.7,0.4,1,2.3,1.8c2.1,0.8,3.3,1.7,3.3,3.6v0c0,2.3-1.7,3.6-4.1,3.6C2.7,63.2,1.1,62.7-0.2,61.4z"/>
				</g>
				<g>
					<path class="st0" d="M9.4,58.4v-7.4h2.5v7.4c0,1.7,0.8,2.6,2.1,2.6c1.3,0,2.1-0.8,2.1-2.5v-7.5h2.5v7.4c0,3.4-1.8,5-4.7,5
						C11.2,63.3,9.4,61.6,9.4,58.4z"/>
				</g>
				<g>
					<path class="st0" d="M19.4,61.4l1.5-1.9c0.8,0.7,1.8,1.4,3,1.4c1,0,1.6-0.5,1.6-1.2v0c0-0.6-0.3-1-2.1-1.6
						c-2.2-0.8-3.5-1.6-3.5-3.7v0c0-2.1,1.6-3.6,4-3.6c1.4,0,2.8,0.5,3.9,1.5l-1.4,1.9c-0.8-0.6-1.6-1.1-2.6-1.1
						c-0.9,0-1.4,0.4-1.4,1.1v0c0,0.7,0.4,1,2.3,1.8c2.1,0.8,3.3,1.7,3.3,3.6v0c0,2.3-1.7,3.6-4.1,3.6
						C22.4,63.2,20.7,62.7,19.4,61.4z"/>
				</g>
				<g>
					<path class="st0" d="M31.3,53.3h-3.1v-2.3h8.6v2.3h-3.1v9.8h-2.5V53.3z"/>
				</g>
				<g>
					<path class="st0" d="M40.1,50.9h2.4l4.4,12.2h-2.6l-0.9-2.6h-4.2l-0.9,2.6h-2.5L40.1,50.9z M42.5,58.2l-1.3-4l-1.3,4H42.5z"/>
				</g>
				<g>
					<path class="st0" d="M47.8,50.9h2.5v12.2h-2.5V50.9z"/>
				</g>
				<g>
					<path class="st0" d="M52.2,50.9h2.3l4.7,7.1v-7.1h2.5v12.2h-2.2l-4.8-7.3v7.3h-2.5V50.9z"/>
				</g>
				<g>
					<path class="st0" d="M66.8,50.9h2.4l4.4,12.2H71l-0.9-2.6h-4.2L65,63.1h-2.5L66.8,50.9z M69.3,58.2l-1.3-4l-1.3,4H69.3z"/>
				</g>
				<g>
					<path class="st0" d="M74.4,50.9H79c1.4,0,2.5,0.4,3.2,1.1c0.5,0.6,0.8,1.2,0.8,2.1v0.1c0,1.4-0.8,2.2-1.6,2.7
						c1.3,0.5,2.2,1.3,2.2,2.9v0.1c0,2.2-1.8,3.3-4.4,3.3h-4.6V50.9z M80.5,54.5c0-0.9-0.6-1.4-1.7-1.4h-1.9v2.7h1.8
						C79.8,55.9,80.5,55.4,80.5,54.5L80.5,54.5z M79.1,58h-2.2v2.8h2.3c1.1,0,1.8-0.5,1.8-1.4v0C81,58.5,80.3,58,79.1,58z"/>
				</g>
				<g>
					<path class="st0" d="M84.6,50.9h2.5v9.8h4.9v2.3h-7.4V50.9z"/>
				</g>
				<g>
					<path class="st0" d="M93.1,50.9h7.8v2.3h-5.3v2.6h4.7v2.3h-4.7v2.7h5.4v2.3h-7.9V50.9z"/>
				</g>
			</g>
		</g>
		<g>
			<g>
				<path class="st1" d="M59.5,7c1.1,2.1,1.4,5,0.7,7.3c-0.7,2.8-3.1,5.6-5.8,6.7c-3.1,1.5-7.4,1.1-10.2-0.8
					c-3.8-2.6-5.4-7.1-4.2-11.5c0.7-2.6,2.8-5.3,5.4-6.5c1.4-0.7,3-1.1,4.7-1.1C54,1.1,57.8,3.4,59.5,7z M50.3,1.6
					c0.1,0.4,0,1,0,1.4c0,0,0-0.1,0-0.1c0.1,0,0.1,0,0.2,0.1c0,0.1,0,0.2,0,0.2c0.1,0,0.1,0,0.2,0c1.2,0.1,2.3,0.4,3.3,1v0
					c0.2-0.1,0.5-0.2,0.7-0.1c0.2-0.1,0.3,0.2,0.5,0.2c0.2,0.1,0.5,0.4,0.6,0.7c0,0.1,0.2,0.2,0.2,0.3c0.2-0.4,0.5-0.6,0.8-0.9
					l0.2-0.1c-1.6-1.5-3.4-2.3-5.5-2.6C51,1.7,50.6,1.7,50.3,1.6z M49.7,1.7c-2.1,0.1-4,0.8-5.6,2c-0.3,0.2-0.6,0.6-0.9,0.7h0
					c0.4,0.3,0.8,0.7,1.2,1.1l0-0.1C46,4,47.7,3.3,49.8,3.2l0-0.1l0-1.2L49.7,1.7z M51.5,2.5l-0.7,0.3c-0.1,0-0.2-0.1-0.2,0
					c0,0,0,0.1,0,0.1C50.8,3.2,51.3,3,51.7,3c0.2,0.1,0.5,0,0.7-0.2v0C52.2,2.5,51.8,2.5,51.5,2.5z M50.3,3.7L50.3,3.7
					c0,0.6,0.1,1.1,0,1.6c0.2-0.1,0.4,0,0.6,0c1,0.2,2,0.5,2.8,1.1c-0.1-0.1-0.2-0.2-0.2-0.4c0,0,0,0,0.1,0c0-0.2-0.2-0.2-0.2-0.4
					c0,0,0.1-0.1,0.1,0C53.7,5.8,53.8,6,54,6.1c0.1,0,0.2,0,0.3,0.1c0.2,0.1,0.1,0.3,0.2,0.4c0,0.3,0.4,0.5,0.4,0.8
					c0,0.1,0.1,0,0.1,0.1l0.3,0.4c-0.1,0.1,0,0.2,0.1,0.2c0.1,0.1,0.2-0.1,0.4-0.1c0.2,0.1,0,0.2,0,0.4c0.1,0,0.2-0.1,0.2,0
					c0,0.1-0.1,0.2-0.1,0.3c0,0.1,0.1,0.1,0.2,0.1c0.1,0,0.2,0.1,0.1,0.2c0.3,0.3-0.1,0.6,0,0.8c0.1,0.2,0,0.4-0.1,0.5
					c0,0.2-0.2,0.4-0.3,0.6l-0.3,0.1c-0.1,0.1,0.1,0.3,0,0.4l0.6,0l-0.1-0.1c-0.1-0.2-0.1-0.5,0.1-0.7c0.1-0.2,0.1-0.4,0.3-0.6
					c0,0,0.1-0.1,0.1,0c0,0.2,0,0.4-0.1,0.5c0.2,0.2,0.1,0.6,0.2,0.8c0.5,0,1,0,1.5,0l0-0.1c-0.1-1-0.3-1.9-0.7-2.7
					c-0.1,0-0.2,0.1-0.3,0.1c0,0-0.1-0.1-0.1-0.1c-0.2-0.2-0.3-0.5-0.6-0.6c-0.3,0-0.4-0.3-0.6-0.3c-0.2-0.1-0.1-0.4-0.4-0.3
					C55.2,7.1,55,7,55,6.8c0-0.3-0.1-0.6-0.3-0.7c-0.2-0.1-0.3,0.2-0.5,0.1c-0.1-0.1-0.1-0.2-0.1-0.3c0-0.1-0.1-0.1-0.1-0.2
					c0.2-0.3-0.3-0.3-0.2-0.6c0-0.2-0.3-0.3-0.4-0.5c-0.8-0.4-1.6-0.6-2.5-0.7C50.7,3.8,50.5,3.8,50.3,3.7z M55,3.7
					c-0.1,0.1-0.2-0.1-0.3,0c0,0.1,0,0.1,0,0.2C55,4,55,4.3,55.3,4.2c0.1-0.1-0.1-0.2,0-0.3C55.2,3.8,55.1,3.8,55,3.7z M45.7,5.1
					c-0.3,0.2-0.6,0.5-1,0.7c0.4,0.2,0.7,0.7,1.1,1l0,0.1c0.9-0.8,2-1.3,3.1-1.6c0.3,0,0.6-0.1,0.8-0.1c0-0.5-0.1-1,0-1.5
					C48.2,3.9,46.9,4.3,45.7,5.1z M57.3,4.7c-0.3,0.4-0.7,0.7-1,1.1l-0.2,0c0.1,0,0.1,0.2,0.2,0.2c0.4,0.2,0.5,0.6,0.8,0.8
					c0.2,0.4,0.6,0.7,0.6,1.1c0.5,1,0.8,2.1,0.8,3.2l0,0.1c0,0,0.1,0,0.1,0l1.5,0C60,11.1,60,10.9,60,10.7
					C59.8,8.4,58.8,6.4,57.3,4.7z M42.9,4.7c-1.5,1.7-2.4,3.5-2.7,5.7c-0.1,0.3,0,0.6-0.1,1c0.5,0,1.1,0,1.6,0l0-0.2
					c0.1-1.7,0.6-3.1,1.6-4.5c0.2-0.3,0.4-0.6,0.7-0.8c-0.3-0.3-0.7-0.7-1-1L42.9,4.7z M49.8,5.8L49.8,5.8c-1.4,0.1-2.6,0.7-3.6,1.5
					c0.4,0.3,0.7,0.7,1.1,1c0,0,0.1-0.1,0.1-0.1c0.5-0.4,1-0.7,1.6-0.8c0.3,0,0.5-0.2,0.8-0.1C49.7,6.8,49.7,6.3,49.8,5.8z
					 M50.3,5.8l0.1,0.1l0,1.4l0.1,0c0.9,0.1,1.7,0.4,2.3,1l0,0.1c0.2-0.3,0.6-0.6,0.9-0.9L54,7.3l-0.1-0.1c-0.6-0.5-1.2-0.8-1.9-1.1
					C51.5,6,50.9,5.9,50.3,5.8z M44.4,6.2L44.4,6.2L43.8,7c-0.9,1.3-1.4,2.7-1.5,4.3l1.4,0l0.1,0.1c-0.1,0,0-0.1-0.1-0.2
					c0.1-1.5,0.6-2.8,1.7-3.9C45.1,7,44.7,6.6,44.4,6.2z M54.3,7.6L54.3,7.6c-0.5,0.6-1,1.1-1.5,1.6c0,0.1,0.1,0.1,0.1,0.2
					c0-0.1,0.1-0.2,0.1-0.4c0.1-0.2,0.3-0.1,0.5,0C53.8,8.9,54,9.1,54.3,9c0.2,0.1,0.2,0.3,0.4,0.4c0,0.1,0,0.1-0.1,0.2
					c0.1,0.4,0.2-0.1,0.4,0c0.1,0,0.2,0,0.2,0.1c0,0.2,0.2,0.1,0.2,0.3c0,0.1-0.1,0.1-0.2,0.1c0,0.2-0.2,0.3-0.1,0.4
					c0.3,0.1,0.3-0.3,0.5-0.4c-0.1-0.3-0.1-0.5-0.3-0.8c-0.2,0-0.3-0.2-0.4-0.3c-0.3-0.1,0.1-0.3,0-0.5C54.8,8.2,54.6,7.9,54.3,7.6z
					 M45.8,7.7c-0.7,0.9-1.2,1.8-1.4,2.9c-0.1,0.3,0,0.5-0.1,0.8c0.2-0.1,0.4-0.1,0.7,0c-0.1-0.1,0-0.2-0.1-0.3c0-0.1,0-0.3,0.1-0.4
					c0-0.2,0.2-0.3,0.2-0.5c0.1-0.2,0.3-0.1,0.4-0.2c0.1,0,0-0.1,0-0.2c0.1-0.1,0.3-0.1,0.4-0.2c0.1-0.1,0.2-0.3,0.3-0.4
					c0.3,0,0.3-0.4,0.6-0.4C46.6,8.5,46.2,8.1,45.8,7.7z M50.3,7.9c0.1,0.3,0,0.7,0.1,1.1l0.4,0.1c0.1-0.2,0.3-0.2,0.5-0.4
					c0.1-0.1,0.1,0,0.2,0.1c0,0.1,0,0.3-0.1,0.4c-0.1,0.3-0.5,0.3-0.7,0.5c0.1,0.1,0.2-0.1,0.3-0.1c0.1,0,0.3,0.1,0.3,0.2
					c0.1,0,0.2,0,0.3,0c0.1-0.4,0.6-0.4,0.8-0.8l-0.1,0c0-0.1-0.1,0-0.1-0.1c0.1-0.1,0.2-0.2,0.3-0.2C52,8.4,51.5,8.1,51,8
					C50.8,8,50.5,7.9,50.3,7.9z M47.5,9h0.1c0.1,0.1,0.3,0.1,0.4,0.3c0,0.1-0.1,0.1-0.1,0.2c0,0,0.1,0,0.1,0.1
					c0.1,0,0.1-0.1,0.1-0.1c0.1-0.1,0.2,0.1,0.3,0.1c0.1-0.1,0.2-0.1,0.3,0c0.1-0.1,0.3,0,0.3-0.1c0.2-0.2,0.1-0.4,0.3-0.5
					c0.1,0,0,0.1,0,0.2c0.2,0.1,0.3-0.1,0.5,0c-0.1-0.3-0.1-0.8-0.1-1.1C48.9,8,48.2,8.3,47.5,9z M50.1,9.8c-0.1-0.1-0.3,0-0.4,0
					c0.1,0.1,0.1,0.3,0.1,0.4c-0.2,0.3-0.4,0.3-0.7,0.4c-0.1,0.1-0.1,0.3-0.2,0.2c-0.1,0.1-0.2,0.2-0.2,0.3c-0.1,0.2,0,0.4-0.1,0.6
					c-0.3,0.2-0.2-0.3-0.4-0.3l-0.1,0.1c-0.1,0-0.1,0-0.1-0.1c0,0-0.1,0-0.2,0c-0.1,0.1-0.2,0.2-0.1,0.4c0,0.1-0.2,0.1-0.2,0.2
					c0.2,0,0.4,0,0.5-0.1c0.1,0,0.2-0.1,0.3-0.1c0,0,0.1,0.1,0.1,0.1h0c0.1-0.1,0.1-0.2,0.1-0.3c0-0.1,0.1-0.1,0.2-0.1
					c0.1,0,0,0.1,0,0.2c0.2,0.1-0.1,0.3-0.1,0.4c-0.1,0.1,0,0.3-0.2,0.3c0,0-0.1,0-0.1-0.1h0c0,0.1,0.1,0.2,0.1,0.2
					c0.1-0.1,0.2-0.3,0.4-0.3c0.1-0.1,0-0.3,0.1-0.4c0.3,0,0.6-0.1,0.8,0.1c0,0.1-0.1,0.1,0,0.2c-0.1,0.1-0.1,0.3-0.2,0.3
					c0,0.1,0,0.2-0.1,0.2c-0.1,0.3-0.4,0.2-0.7,0.3c0.3,0.3,0.7,0.3,1.2,0.3c0.2,0,0.1-0.3,0.2-0.4c0.1-0.4,0.4-0.1,0.6-0.2
					c0.1-0.2,0.2-0.3,0.2-0.5c-0.1-0.1-0.2-0.2-0.1-0.4c-0.1-0.1-0.1-0.3-0.3-0.4c0,0,0-0.1,0-0.1c0-0.1,0.1-0.2,0.1-0.2
					c-0.1-0.1-0.1-0.3-0.1-0.3c-0.2,0.1-0.2-0.2-0.4-0.3c0-0.1-0.2-0.1-0.3-0.2c-0.2,0.1-0.3-0.2-0.5-0.3c0-0.1-0.1-0.1,0-0.2
					C49.9,9.8,50.1,9.9,50.1,9.8L50.1,9.8z M45.5,11.1c-0.4,0.1,0.1,0.5,0,0.7c-0.1,0.2-0.2,0-0.3,0.1l0,0.3c-0.1,0.2-0.3,0-0.4,0.2
					c-0.1,0.1,0,0.2,0.1,0.3c-0.1,0.3,0.3,0.4,0.3,0.7c0.1,0.2,0,0.5,0.2,0.6c0,0.3,0,0.8,0.2,1.1l0.1,0.3c0.1,0.2-0.3,0.2-0.2,0.4
					c0.1,0,0.1,0.1,0.1,0.1v0c0.4-0.5,0.9-1,1.3-1.4l-0.2-0.2c-0.4-0.6-0.7-1.1-0.8-1.8l-0.2-0.1c0,0.2-0.1,0.3-0.1,0.5l-0.1,0.1
					c-0.1,0-0.2-0.1-0.3-0.2c0-0.1-0.1-0.2,0-0.2c0.1,0,0.1,0,0.1,0c0-0.1,0-0.1,0.1-0.2c0-0.1-0.1-0.2,0-0.3c0.1,0,0.2,0.1,0.2,0.2
					c0.1,0,0.2-0.1,0.3-0.1c0-0.1,0.1-0.2,0-0.3c0.1-0.2,0-0.4,0-0.6C45.9,11.1,45.7,11.1,45.5,11.1z M55.3,11.3c0,0-0.1,0-0.2,0
					C55.2,11.3,55.2,11.3,55.3,11.3z M55,11.8l0.2,0.2c0.2,0.1,0.1,0.3,0.2,0.4c0.2,0.1,0.3,0.3,0.4,0.5c0,0,0-0.1,0-0.2
					c0.1-0.3,0.1-0.6,0.2-0.9C55.6,11.9,55.2,11.9,55,11.8z M58.5,11.9L58.5,11.9L58.5,11.9c-0.1,1.8-0.7,3.3-1.7,4.7
					c-0.2,0.2-0.4,0.5-0.6,0.7c0.4,0.3,0.8,0.8,1.2,1.1l0-0.1c1.6-1.8,2.5-3.9,2.6-6.4l0.1-0.1l-0.1,0L58.5,11.9z M56.4,11.8
					c0,0.3-0.1,0.6-0.1,0.9l0.2,0.2c0,0.1,0,0.2,0,0.2c-0.1,0-0.2,0-0.2,0c-0.2,0.7-0.5,1.4-0.9,2c-0.2,0.2-0.3,0.5-0.6,0.6l0.5,0.4
					c0,0,0-0.1,0-0.1c0-0.1,0-0.1,0.1-0.1c0.2,0,0.2,0.2,0.4,0.4c0,0.2,0.1,0.4,0.1,0.5c1.3-1.4,2-3.1,2.1-5l0.1-0.1
					c-0.5,0-1,0-1.4,0L56.4,11.8z M44.3,11.9l0.1,0.1c0,0.3,0.1,0.7,0.1,1c0.1-0.1,0.1-0.2,0.2-0.3c0-0.1-0.1-0.1-0.1-0.2
					c0.1-0.2,0-0.5,0.3-0.6C44.6,11.9,44.5,12,44.3,11.9z M41.8,11.9l-0.1,0.1l-1.4,0c0.1,1.7,0.5,3.2,1.3,4.6
					c0.4,0.7,0.9,1.3,1.4,1.9l1-1.1l0.1-0.1c-0.2-0.1-0.3-0.3-0.5-0.5c-0.2,0-0.3-0.2-0.4-0.3c-0.1-0.1,0-0.2-0.1-0.2L43,16.3
					c-0.2,0.1-0.2-0.1-0.4-0.2c-0.2-0.1-0.1-0.4-0.3-0.3c-0.1,0-0.1-0.1-0.2-0.2c-0.2,0-0.3-0.2-0.4-0.3c0,0,0,0.1-0.1,0.1
					c-0.2,0-0.3-0.2-0.4-0.3c0,0-0.1,0.1-0.1,0C41,15.1,41,15,41,14.8c-0.2-0.2-0.1-0.5-0.1-0.7c0-0.1,0.1-0.1,0.1-0.2
					c0-0.1,0.2-0.1,0.3-0.1c0,0,0.1,0.1,0.1,0.1c0.1,0,0.2,0,0.2-0.1c0.1-0.1,0.2-0.1,0.3-0.1c0.1,0.1,0.1,0.2,0.2,0.3L42,13.8
					c-0.1-0.5-0.2-1-0.3-1.6c0,0-0.1,0,0-0.1l0,0C41.8,12,41.8,11.9,41.8,11.9z M43.8,11.9l-0.1,0.1c-0.5,0-1,0-1.4,0l0.1,0.1l0.1,1
					c0,0.4,0.2,0.7,0.2,1.1c0.1-0.1,0-0.2,0.2-0.2c-0.1-0.1,0.1-0.2,0-0.3c0-0.2,0.1-0.5,0.3-0.7c0.3,0,0.3-0.4,0.6-0.4
					c0.1,0,0.2,0.2,0.3,0.2C43.8,12.4,43.8,12.1,43.8,11.9z M46.5,12.5c0.1,0.3,0.2,0.6,0.4,0.8c0.1,0.2,0.3,0.4,0.4,0.7
					c0.1-0.2,0.3-0.3,0.4-0.5c0-0.1,0-0.1,0-0.2c0-0.1,0-0.3-0.1-0.4c-0.1,0,0,0.2,0,0.3c-0.1,0-0.1,0-0.1-0.1
					c-0.1,0-0.2-0.1-0.2-0.2c0.1-0.1,0-0.1-0.1-0.1c-0.1,0-0.1,0-0.1,0c0,0-0.1,0-0.1,0C47,12.5,46.6,12.7,46.5,12.5z M48.1,12.9
					c0,0.1-0.1,0.2-0.2,0.3l0,0c0.1-0.1,0.2-0.3,0.4-0.3L48.1,12.9z M52.2,13.4c0,0.1,0,0.2,0.1,0.2c0.2,0,0.1,0.2,0.3,0.2
					c0.1,0,0-0.1,0-0.2c0-0.2-0.2-0.2-0.3-0.3c0,0,0-0.1,0-0.1C52.3,13.2,52.3,13.3,52.2,13.4z M55.2,13.4c-0.2,0-0.3,0.1-0.5,0
					c0,0-0.1,0-0.1,0.1c-0.1,0.1-0.1,0.2-0.2,0.1c-0.1,0-0.1-0.1-0.1-0.2c0,0.1,0,0.1,0,0.2c-0.1,0.1-0.1,0.2-0.2,0.3
					C54,14,53.8,13.9,53.7,14c0,0.2-0.3,0.2-0.5,0.3c0,0,0,0,0,0.1c0.1,0,0.2,0,0.2-0.1c0.2,0.1,0.2-0.2,0.3-0.3
					c0.1,0,0.2-0.1,0.3,0c0.1,0.1,0.1,0.3,0.1,0.5c-0.1,0.1-0.1,0.3-0.2,0.5c0,0.2-0.2,0.2-0.2,0.4c-0.1,0.1-0.2,0.1-0.3,0.1
					c-0.4-0.2-0.8-0.3-1.3-0.3c0,0-0.1,0.1-0.1,0.1c0.2,0.1,0.4,0.1,0.6,0.2c0.2,0,0.3,0.3,0.5,0.2c0.2-0.1,0.5,0.1,0.6-0.1
					c0-0.2,0.1-0.3,0.2-0.5l0.1,0c0.1,0.1,0.1,0.3,0.1,0.4c0.1-0.2,0.3-0.3,0.4-0.5c0.3-0.5,0.6-1,0.8-1.6
					C55.5,13.3,55.3,13.3,55.2,13.4z M48.6,13.4c-0.2,0.4-0.7,0.7-1,1c0.6,0.5,1.2,0.7,1.9,0.9c0-0.1,0-0.3,0.1-0.4
					c0.1-0.1,0.2-0.1,0.3-0.1c0.1,0,0.1-0.1,0.1-0.1c-0.2,0-0.1-0.2-0.1-0.3c0-0.1,0.1,0,0.1-0.1c-0.1-0.1,0.1-0.2,0-0.3
					c0,0,0.1-0.1,0.1-0.1c-0.3,0.2-0.7,0-1-0.2C48.9,13.6,48.7,13.5,48.6,13.4z M51.7,14.3c0,0-0.1,0.1,0,0.1
					c0.1-0.1,0.4-0.1,0.4-0.3C51.9,14.1,51.8,14.2,51.7,14.3z M52.2,14.7c-0.2,0-0.2,0.1-0.4,0.2c-0.1,0.1-0.2-0.2-0.3-0.1
					c0,0,0,0,0.1,0c0,0,0,0.1,0,0.2c-0.2,0.2-0.3-0.1-0.4-0.1V15c0,0,0,0.1-0.1,0.1c-0.1-0.2-0.3-0.1-0.4-0.3c-0.1,0-0.1,0-0.2,0.1
					c0,0.1-0.2,0-0.2,0.1c-0.1,0-0.1,0.2-0.2,0.3c-0.2,0-0.2,0.2-0.4,0.2c0,0,0,0.1,0,0.1c0.1,0,0.2,0.1,0.3,0
					c0.2-0.2,0.4,0,0.6-0.1c0.1,0,0,0.2,0.1,0.2c0.2-0.1,0.4,0.2,0.5,0c0-0.2,0.3-0.2,0.4-0.3C52,15.2,52.3,15,52.2,14.7L52.2,14.7z
					 M47.2,14.8c-0.3,0.4-0.7,0.8-1,1.1c0.2,0,0.2,0.2,0.4,0.3c0.8,0.7,1.8,1,2.7,1.2L49,17.2c-0.2-0.2-0.5-0.5-0.5-0.8
					c0.2-0.1,0.2-0.3,0.2-0.4c0.2-0.2,0.3-0.3,0.5-0.3c-0.5,0.2-1-0.2-1.4-0.4C47.6,15.2,47.4,15.1,47.2,14.8z M54.5,16.3L54.5,16.3
					c-0.1,0-0.2,0.1-0.3,0.2c0,0.1,0,0.2,0.1,0.3c0.2,0.1,0.5,0.2,0.5,0.4c-0.1,0.2-0.5,0.4-0.3,0.7c0.1,0.1-0.1,0.2-0.1,0.3
					l0.1-0.1c0.3-0.2,0.7-0.5,0.9-0.8h0c-0.1,0-0.1,0-0.2,0c-0.1-0.1-0.2-0.2-0.2-0.3L54.5,16.3z M46.1,16.5L46.1,16.5L46.1,16.5
					L46.1,16.5z M46.2,16.7c-0.1,0-0.1-0.1-0.1-0.2L46.2,16.7z M46.3,16.7c0,0.1,0.2,0.2,0.2,0.4c-0.1,0.1-0.3,0.1-0.4,0.1
					c-0.3,0-0.5,0.2-0.8,0.2c-0.3,0.1-0.3-0.2-0.6-0.2c1.4,1.3,3.1,2.1,5,2.2l0.1,0.1l-0.1-0.2v-1.4L49.6,18
					C48.4,17.9,47.3,17.5,46.3,16.7z M55.9,17.7l0-0.1c-0.1,0.3-0.5,0.5-0.7,0.7c-0.3,0.3-0.9,0.4-1.1,0.9c-0.2,0.2-0.2,0.4-0.5,0.5
					c-0.1,0.3-0.4,0.2-0.5,0.4c-0.4,0.4-0.7-0.2-1.1-0.3l-0.8,0.1c-0.3,0-0.6,0.1-0.8,0c0,0.5,0,1.1,0,1.6l0.1-0.1
					c2.5-0.1,4.7-1.1,6.5-2.7L55.9,17.7z M44.3,17.7L44.3,17.7l-1.1,1.1c1.6,1.4,3.5,2.3,5.6,2.6c0.3,0.1,0.7,0,1,0.1l-0.1-0.1V20
					l0.1-0.1l-0.2,0C47.6,19.8,45.8,19.1,44.3,17.7z M50.3,18l0.1,0.1c0,0.4,0.1,0.9,0,1.3c0.4-0.1,0.8-0.1,1.2-0.2
					c-0.1,0-0.2-0.1-0.2-0.1c-0.2,0-0.4-0.3-0.4-0.5c0-0.1,0.1-0.3,0.1-0.4c-0.1-0.2-0.4-0.1-0.6-0.1C50.4,18.1,50.4,18.1,50.3,18z"
					/>
			</g>
			<g>
				<g>
					<path class="st1" d="M59.9,3.1c0.8,0.7,1.1,1.6,1.3,2.5l0.1,0.3c-1.1-0.8-2.1-1.9-2.8-3L57.6,2C58.4,2.3,59.2,2.5,59.9,3.1z"/>
				</g>
				<g>
					<path class="st1" d="M40.5,4.4c-0.5,0.6-1.2,1-1.7,1.6c0.3-0.6,0.3-1.4,0.8-2c0.6-1.1,1.8-1.5,2.8-1.9
						C41.6,2.8,41.1,3.6,40.5,4.4z"/>
				</g>
				<g>
					<path class="st1" d="M62.6,5.6c0.2,1.1-0.1,2.2,0.1,3.3l0,0c-0.6-1.2-1.9-1.7-2.7-2.7c-0.5-0.6-0.7-1.2-0.8-2
						c0.5,1.2,1.8,1.5,2.6,2.5C62,7,62.1,7.3,62.2,7.5l0,0c-0.4-0.9-0.6-2-0.9-3c-0.2-0.4-0.5-0.9-0.9-1.1
						C61.5,3.6,62.4,4.6,62.6,5.6z"/>
				</g>
				<g>
					<path class="st1" d="M39.6,3.5c-1,0.7-1,2-1.3,3C38.2,7,38,7.3,37.9,7.7l0,0c0.2-0.5,0.5-0.9,0.8-1.2c0.7-0.7,1.8-1.1,2.2-2.1
						c0,1.4-1.2,2.5-2.3,3.3c-0.5,0.4-0.9,0.9-1.2,1.4c0-0.3,0.1-0.7,0-1.1c-0.1-1.2-0.2-2.6,0.7-3.5C38.6,4,39,3.7,39.6,3.5z"/>
				</g>
				<g>
					<path class="st1" d="M63.2,5.8c0.9,1.2,1.1,3.2,0.5,4.7c-0.2,0.6-0.4,1.3-0.5,1.9c0-0.1-0.1-0.3-0.1-0.4
						c-0.4-1.4-1.7-2.4-2.2-3.7c-0.2-0.4-0.3-0.9-0.4-1.3c0.6,1.1,2,1.6,2.4,2.8c0.2,0.3,0.2,0.7,0.2,1c0,0,0,0,0,0
						c-0.2-1.2-0.1-2.5,0-3.7c0-0.7-0.1-1.3-0.4-1.8C63,5.4,63.1,5.6,63.2,5.8z"/>
				</g>
				<g>
					<path class="st1" d="M37.4,5.4c-0.8,1.2-0.1,2.7-0.2,4.1l-0.1,1.4c0,0,0,0.1,0.1,0c0-0.2,0.1-0.3,0.1-0.5
						c0.2-1.1,1.2-1.9,2-2.7c0.2-0.2,0.3-0.4,0.4-0.7c-0.1,0.6-0.2,1.1-0.5,1.7c-0.7,1.3-1.9,2.4-2.1,3.9c-0.1-1.4-1.1-2.5-1-4
						C36.1,7.4,36.6,6.4,37.4,5.4C37.3,5.5,37.3,5.4,37.4,5.4z"/>
				</g>
				<g>
					<path class="st1" d="M64.1,13.9c-0.5,0.8-1.2,1.5-1.7,2.3c0.1-0.6,0.1-1.4-0.1-2c-0.4-1.3-0.8-2.6-0.9-4l0-0.5
						c0.3,1.4,1.7,2.4,1.6,4c0,0.4-0.1,0.7-0.2,1.1l0,0l0.1-0.1c0.2-0.8,0.3-1.6,0.6-2.3c0.5-1.1,1-2.1,0.8-3.4
						C65.1,10.5,64.9,12.5,64.1,13.9z"/>
				</g>
				<g>
					<path class="st1" d="M37,13.4c0.2,0.5,0.2,1.1,0.4,1.6c0,0,0,0,0.1,0c-0.5-1.5,0.2-2.9,1-4.1c0.2-0.3,0.3-0.7,0.4-1
						c0.1,0.7-0.1,1.5-0.2,2.2c-0.2,0.9-0.5,1.7-0.7,2.6c-0.2,0.5-0.1,1.2,0,1.7l-0.1-0.1c-0.6-1-1.7-1.9-2-3c-0.3-0.9-0.5-2-0.3-3
						c0.1-0.4,0.2-0.8,0.3-1.1C35.5,10.9,36.6,12,37,13.4z"/>
				</g>
				<g>
					<path class="st1" d="M61.9,16.4c0,0.7-0.3,1.3-0.6,1.9h0.1c0.5-0.7,0.9-1.4,1.5-2c0.9-0.9,1.8-1.8,1.9-3c0.3,2-0.8,3.8-2.5,4.9
						c-0.7,0.5-1.4,0.9-2.1,1.4v-0.1c1-1.7,0.5-4,1.2-5.9l0.2-0.6C61.5,14.2,62,15.2,61.9,16.4z"/>
				</g>
				<g>
					<path class="st1" d="M39.6,18.7c0.1,0.4,0.3,0.7,0.5,1.1c-1.6-1.1-3.7-2.1-4.4-4c-0.3-0.7-0.3-1.5-0.3-2.3
						c0.1,1.7,2,2.6,2.8,4.1c0.2,0.3,0.4,0.6,0.7,0.9c0-0.2-0.2-0.3-0.3-0.5c-0.3-0.6-0.4-1.3-0.3-2c0.1-0.9,0.5-1.7,0.3-2.6
						C39.4,14.9,39.2,16.9,39.6,18.7z"/>
				</g>
				<g>
					<path class="st1" d="M59.6,20c-0.3,0.5-0.6,0.9-1.1,1.3c0.1,0,0.3-0.1,0.4-0.2c1.1-1.1,2.6-1.4,3.8-2.3
						c0.5-0.4,0.9-0.9,1.1-1.4c-0.2,1.8-2.1,3.6-3.8,4.1c-0.9,0.2-1.9,0.3-2.7,0.6c1.5-1.3,1.4-3.2,2.4-4.7c0.3-0.4,0.6-0.9,0.9-1.3
						C60.1,17.3,60.3,18.8,59.6,20z"/>
				</g>
				<g>
					<path class="st1" d="M41,18.4c0.5,1.3,0.7,2.7,1.9,3.7c-1.3-0.4-2.8-0.3-4-1.1c-1.3-0.8-2.4-2.1-2.6-3.5c0.9,2,3,2.1,4.5,3.3
						c0.3,0.2,0.5,0.4,0.8,0.6l0,0c-0.3-0.3-0.7-0.6-1-1c-0.8-1.2-0.6-2.8-1.2-4.1C40.2,16.9,40.7,17.6,41,18.4z"/>
				</g>
				<g>
					<path class="st1" d="M56.5,22.2c-0.3,0.2-0.7,0.2-1,0.4c0.5,0,0.9-0.2,1.4-0.2c1.7-0.3,3.7,0,4.9-1.5c-0.4,1-1.6,1.9-2.6,2.2
						c-1.8,0.7-3.5-0.2-5.2-0.4l-0.3,0v0c0.8-0.2,1.6-0.4,2.2-1c0.9-0.9,1.8-1.8,2.8-2.6C57.8,20.2,57.8,21.6,56.5,22.2z"/>
				</g>
				<g>
					<path class="st1" d="M44.4,21.8c0.7,0.6,1.5,0.9,2.3,1c-0.2,0.1-0.5,0.1-0.7,0.1c-1.5,0.4-3.2,1-4.8,0.4
						c-1-0.3-2.1-1.2-2.7-2.2c1.4,1.6,3.7,1.1,5.5,1.5c0.3,0,0.5,0.1,0.8,0.1c-0.2-0.1-0.5-0.1-0.8-0.2c-1.4-0.5-1.7-2.1-2.4-3.1
						C42.7,20,43.5,20.9,44.4,21.8z"/>
				</g>
				<g>
					<path class="st1" d="M55.7,23.9c1.1,0.4,2.6,0.3,3.5-0.4c-0.5,0.6-1.2,1.1-1.9,1.3c-1.6,0.6-3.2,0-4.4-1
						c-0.5-0.3-0.9-0.8-1.6-0.7c-0.2,0-0.5,0-0.7,0.1c1.2,0.6,2.3,1.3,3.3,2.3c-0.2,0.2-0.4,0.4-0.6,0.5c-1-1-2-2.1-3.2-2.6
						c-0.2,0-0.5,0.2-0.7,0.3c-1,0.6-1.9,1.4-2.7,2.4l-0.6-0.5c1-1,2.1-1.8,3.3-2.4c-1.2-0.4-2,0.6-2.9,1.1
						c-1.1,0.7-2.6,1.1-3.8,0.6c-0.7-0.3-1.3-0.6-1.8-1.3c1,0.7,2.5,0.8,3.6,0.3c1.5-0.7,3.1-1.5,4.9-1.1c0.3,0,0.6,0.3,0.8,0
						c1.4-0.4,2.9-0.1,4.1,0.5L55.7,23.9z"/>
				</g>
			</g>
		</g>
		<g>
			<g>
				<path class="st1" d="M12.7,91.1h10.7c-0.2,8.6-4.9,13-11.3,13C5.1,104,0.7,98.2,0.7,92c0-6.2,4.4-12.1,11.3-12.1
					c7.6,0,9.7,4.8,10.6,7.2l-4.9,0.3C17,85.4,15.3,84,12,84c-3.6,0-6.5,3-6.5,7.9c0,4.2,2.6,7.9,6.8,7.9c3.7,0,5.5-2.7,5.9-4.9
					h-5.6V91.1z"/>
			</g>
			<g>
				<path class="st1" d="M69.2,80.4h4.6v18.9h8.9v4.3H69.2V80.4z"/>
			</g>
			<g>
				<path class="st1" d="M95.7,86.5c0-1.6-1.5-2.6-3.4-2.6c-2.3,0-3.7,1-3.7,2.6c0,1.6,1.5,2.4,2.7,2.7l4.3,1.4
					c3.1,1,5.3,2.8,5.3,6.4c0,2.8-2,7.1-8.4,7.1c-8,0-8.8-5.2-8.8-7.3l4.6-0.1c0,2.5,1.9,3.4,4.2,3.4c1.6,0,3.8-0.8,3.8-2.6
					c0-1.2-0.5-1.9-2.8-2.7L88.4,93c-2.6-0.9-4.3-3.2-4.3-5.8c0-3,2-7.2,8-7.2c7.2,0,8.3,4.7,8.3,6.4L95.7,86.5z"/>
			</g>
			<g>
				<g>
					<path class="st2" d="M30.8,89.1c0.3-0.5,0.6-0.9,1-1.3l-3.4-3.7c-0.8,0.8-1.6,1.7-2.1,2.8L30.8,89.1z"/>
				</g>
				<g>
					<path class="st3" d="M39,86.5c0.5,0.2,1,0.5,1.4,0.9l3.4-3.7c-0.9-0.8-1.9-1.4-3-1.9L39,86.5z"/>
				</g>
				<g>
					<path class="st4" d="M46.7,87.6l-4.5,2.2c0.2,0.5,0.4,1,0.4,1.6l5-0.5C47.6,89.8,47.2,88.7,46.7,87.6"/>
				</g>
				<g>
					<path class="st5" d="M42,89.2l4.5-2.2c-0.6-1-1.3-2-2.1-2.8L41,87.9C41.3,88.3,41.7,88.7,42,89.2"/>
				</g>
				<g>
					<path class="st6" d="M29.9,92.4c0-0.1,0-0.2,0-0.3l-5-0.4c0,0.2,0,0.5,0,0.7c0,1,0.1,1.9,0.3,2.8l4.8-1.4
						C29.9,93.3,29.9,92.9,29.9,92.4"/>
				</g>
				<g>
					<path class="st7" d="M41.3,96.5c-0.4,0.4-0.8,0.8-1.2,1.1l2.6,4.3c1-0.7,1.8-1.5,2.6-2.4L41.3,96.5z"/>
				</g>
				<g>
					<path class="st8" d="M42.8,92.4c0,0.5-0.1,0.9-0.1,1.4l4.8,1.4c0.2-0.9,0.3-1.8,0.3-2.8c0-0.2,0-0.5,0-0.7l-5,0.5
						C42.8,92.2,42.8,92.3,42.8,92.4"/>
				</g>
				<g>
					<path class="st9" d="M31.4,96.6l-4,3c0.7,0.9,1.6,1.7,2.6,2.4l2.6-4.2C32.2,97.4,31.8,97,31.4,96.6"/>
				</g>
				<g>
					<path class="st10" d="M30,91.4c0.1-0.6,0.3-1.1,0.5-1.6L26,87.5c-0.5,1.1-0.8,2.2-1,3.4L30,91.4z"/>
				</g>
				<g>
					<path class="st11" d="M42.1,102.2L39.5,98c-0.5,0.3-1,0.5-1.5,0.6l0.9,4.9C40.1,103.3,41.1,102.8,42.1,102.2"/>
				</g>
				<g>
					<path class="st12" d="M42.5,94.4c-0.2,0.5-0.4,1-0.7,1.4l4,3c0.6-0.9,1.2-2,1.5-3.1L42.5,94.4z"/>
				</g>
				<g>
					<path class="st13" d="M37.3,98.8c-0.3,0-0.6,0.1-0.9,0.1c-0.3,0-0.5,0-0.8,0l-0.9,4.9c0.5,0.1,1.1,0.1,1.7,0.1
						c0.6,0,1.3-0.1,1.9-0.2L37.3,98.8z"/>
				</g>
				<g>
					<path class="st14" d="M36.8,85.9c0.6,0,1.1,0.1,1.6,0.3l1.8-4.7c-1.1-0.4-2.2-0.6-3.4-0.6V85.9z"/>
				</g>
				<g>
					<path class="st15" d="M34.9,98.7c-0.6-0.1-1.1-0.3-1.6-0.6l-2.6,4.2c1,0.6,2.1,1,3.3,1.3L34.9,98.7z"/>
				</g>
				<g>
					<path class="st16" d="M34.4,86.2c0.5-0.2,1.1-0.3,1.6-0.3v-5c-1.2,0-2.4,0.3-3.4,0.6L34.4,86.2z"/>
				</g>
				<g>
					<path class="st17" d="M31,96c-0.3-0.5-0.6-1-0.8-1.5l-4.8,1.4C25.8,97,26.3,98,27,99L31,96z"/>
				</g>
				<g>
					<path class="st18" d="M32.3,87.3c0.4-0.3,0.9-0.6,1.4-0.8l-1.8-4.7c-1.1,0.5-2.1,1.1-2.9,1.8L32.3,87.3z"/>
				</g>
			</g>
			<g>
				<g>
					<path class="st1" d="M61.6,98.7H53l-1.5,4.9h-5.1L55,80.1H60l8.4,23.5h-5.2L61.6,98.7z M57.4,85.7L57.4,85.7l-3,9.1h6
						L57.4,85.7z"/>
				</g>
			</g>
		</g>
	</g>
	<g>
		<path class="st1" d="M0.3,42.2v-7.4h2.1v7.3c0,1.7,0.8,2.9,2.3,2.9c1.5,0,2.3-1.2,2.3-2.9v-7.3H9v7.4c0,3.1-1.4,5.1-4.4,5.1
			C1.7,47.3,0.3,45.2,0.3,42.2z"/>
		<path class="st1" d="M17.7,47l-4.6-8v8H11V34.8h2.1l4.5,7.7v-7.7h2.1V47H17.7z"/>
		<path class="st1" d="M25.1,40.9c0-3.8,2.3-6.3,5.2-6.3c2.1,0,3.4,1.5,4.1,3l-1.8,1.1c-0.4-1-1.3-1.8-2.3-1.8c-1.8,0-3,1.7-3,4
			c0,2.3,1.3,4,3,4c1,0,1.9-0.8,2.3-1.8l1.8,1.1c-0.7,1.5-1.9,3-4.1,3C27.3,47.3,25.1,44.7,25.1,40.9z"/>
		<path class="st1" d="M42.3,47L41.7,45h-4.2L36.9,47h-2.4l3.8-12.3h2.6L44.7,47H42.3z M39.6,37.4l-1.5,5.3h3L39.6,37.4z"/>
		<path class="st1" d="M54.1,47v-8.6L51.4,47h-0.9l-2.7-8.6V47h-2.1V34.8h2.9l2.4,7.4l2.4-7.4h2.9V47H54.1z"/>
		<path class="st1" d="M58.2,47V34.8h4.5c2.1,0,3.3,1.8,3.3,4c0,2.1-1.2,4-3.3,4h-2.5V47H58.2z M63.9,38.7c0-1-0.6-1.7-1.4-1.7h-2.2
			v3.3h2.2C63.3,40.4,63.9,39.7,63.9,38.7z"/>
		<path class="st1" d="M74.1,47L73.5,45h-4.2L68.7,47h-2.4l3.8-12.3h2.6L76.4,47H74.1z M71.4,37.4l-1.5,5.3h3L71.4,37.4z"/>
		<path class="st1" d="M77.4,47V34.8h2.1V47H77.4z"/>
		<path class="st1" d="M81,40.9c0-3.9,2.3-6.3,5.2-6.3c2,0,3.3,1.3,4,2.7l-1.7,1.2c-0.4-0.9-1.3-1.6-2.3-1.6c-1.8,0-3,1.7-3,4
			c0,2.3,1.3,4,3,4c0.9,0,1.7-0.5,2.1-0.9v-1.5h-2.6v-2.3h4.6V45c-1,1.4-2.4,2.3-4.1,2.3C83.4,47.3,81,44.8,81,40.9z"/>
		<path class="st1" d="M98.8,47l-4.6-8v8h-2.1V34.8h2.1l4.5,7.7v-7.7h2.1V47H98.8z"/>
	</g>
</g>
</svg>
